<svg xmlns="http://www.w3.org/2000/svg" xmlns:xlink="http://www.w3.org/1999/xlink" width="1366" height="768"
     viewBox="0 0 1366 768">
    <defs>
        <clipPath id="a">
            <rect width="1322.4" height="57.673" fill="none"/>
        </clipPath>
        <linearGradient id="b" x1="0.504" y1="1.119" x2="0.497" y2="0.068" gradientUnits="objectBoundingBox">
            <stop offset="0.031" stop-color="#ffc107" stop-opacity="0.729"/>
            <stop offset="0.2" stop-color="#ffbd06" stop-opacity="0.733"/>
            <stop offset="0.261" stop-color="#ffb105" stop-opacity="0.753"/>
            <stop offset="0.304" stop-color="#ff9c03" stop-opacity="0.784"/>
            <stop offset="0.339" stop-color="#ff7f01" stop-opacity="0.827"/>
            <stop offset="0.354" stop-color="#ff6f00" stop-opacity="0.851"/>
            <stop offset="0.401" stop-color="#f16518" stop-opacity="0.871"/>
            <stop offset="0.501" stop-color="#ce4b57" stop-opacity="0.925"/>
            <stop offset="0.631" stop-color="#9c27b0"/>
            <stop offset="0.957" stop-color="#4a148c"/>
        </linearGradient>
        <radialGradient id="d" cx="107.816" cy="99.082" r="117.225"
                        gradientTransform="translate(8.694 15.335) scale(0.919 0.845)" gradientUnits="userSpaceOnUse">
            <stop offset="0.687" stop-color="#fff"/>
            <stop offset="0.722" stop-color="#fff" stop-opacity="0.835"/>
            <stop offset="0.791" stop-color="#fff" stop-opacity="0.541"/>
            <stop offset="0.853" stop-color="#fff" stop-opacity="0.31"/>
            <stop offset="0.905" stop-color="#fff" stop-opacity="0.141"/>
            <stop offset="0.945" stop-color="#fff" stop-opacity="0.039"/>
            <stop offset="0.97" stop-color="#fff" stop-opacity="0"/>
        </radialGradient>
        <clipPath id="f">
            <rect width="1366" height="768"/>
        </clipPath>
    </defs>
    <g id="e" clip-path="url(#f)">
        <rect width="1366" height="768" fill="#fff"/>
        <g transform="translate(0 7)">
            <g transform="translate(0 -8)" fill="#4a148c">
                <path d="M 1365.5 767.5 L 0.5 767.5 L 0.5 0.5 L 1365.5 0.5 L 1365.5 767.5 Z" stroke="none"/>
                <path d="M 1 1 L 1 767 L 1365 767 L 1365 1 L 1 1 M 0 0 L 1366 0 L 1366 768 L 0 768 L 0 0 Z"
                      stroke="none" fill="#707070"/>
            </g>
            <g transform="translate(43 166.321)" clip-path="url(#a)">
                <text transform="translate(632.602 187.492)" fill="#7f7f7f" font-size="11"
                      font-family="Roboto-Bold, Roboto" font-weight="700">
                    <tspan x="0" y="0"></tspan>
                </text>
            </g>
            <path d="M1235.935,249.68c0,2.22-2.184,4.02-4.878,4.02s-4.878-1.8-4.878-4.02,2.184-4.019,4.878-4.019S1235.935,247.46,1235.935,249.68Z"
                  transform="translate(126.264 141.459)" fill="#155277"/>
            <path d="M508.757,363.068c0,2.22-2.185,4.019-4.879,4.019s-4.878-1.8-4.878-4.019,2.184-4.02,4.878-4.02S508.757,360.847,508.757,363.068Z"
                  transform="translate(60.171 138.567)" fill="#155277"/>
            <path d="M327.457,281.728c0,2.22-2.184,4.019-4.879,4.019s-4.878-1.8-4.878-4.019,2.184-4.019,4.878-4.019S327.457,279.508,327.457,281.728Z"
                  transform="translate(46.433 155.189)" fill="#155277"/>
            <path d="M381,152.266c0,2.22-2.184,4.019-4.878,4.019s-4.878-1.8-4.878-4.019,2.184-4.019,4.878-4.019S381,150.046,381,152.266Z"
                  transform="translate(50.49 181.647)" fill="#155277"/>
            <ellipse cx="4.878" cy="4.019" rx="4.878" ry="4.019" transform="translate(500.134 288.324)" fill="#155277"/>
            <path d="M0,0H1364V561.3H0Z" transform="translate(0 120.413)" fill="url(#b)"/>
            <path d="M171.712,95.141c0,2.22-2.484,4.019-5.549,4.019s-5.549-1.8-5.549-4.019,2.485-4.019,5.549-4.019S171.712,92.921,171.712,95.141Z"
                  transform="translate(22.264 193.321)" fill="#155277"/>
            <path d="M50.722,155.942c0,2.22-2.484,4.019-5.549,4.019s-5.549-1.8-5.549-4.019,2.484-4.02,5.549-4.02S50.722,153.721,50.722,155.942Z"
                  transform="translate(22.264 180.895)" fill="#155277"/>
            <ellipse cx="4.58" cy="3.318" rx="4.58" ry="3.318" transform="translate(72.513 226.677)" fill="#fafbfb"
                     opacity="0.72"/>
            <path d="M1036.651,373.548a26.029,26.029,0,0,1-3.145-12.3c0-18.863,21.06-34.155,47.038-34.155,18.357,0,34.255,7.635,42.006,18.77,7.594-8.946,20.8-14.867,35.828-14.867,19.861,0,36.55,10.344,41.291,24.346,8.789-4.337,21.451-7.059,35.528-7.059,26.539,0,48.054,9.674,48.054,21.609a10.093,10.093,0,0,1-.441,2.927h1.118c9.12,0,16.582,6.148,16.582,13.662h0c0,7.514-7.462,13.662-16.582,13.662H1041.966c-9.12,0-16.582-6.148-16.582-13.662h0C1025.384,380.5,1030.118,375.385,1036.651,373.548Z"
                  transform="translate(28.264 154.698)" fill="#fff" opacity="0.5"/>
            <path d="M663.173,599.136a4.39,4.39,0,0,0,.527.082l3.313-.389h0l-3.313.389a15.516,15.516,0,0,0,1.625.076h21.023a15.791,15.791,0,0,0,1.61-.074,2.707,2.707,0,0,0,.7-.138v-2.537c0-.021-.035-.042-.09-.062V579.871a8.752,8.752,0,0,0-.09-1.326,1.63,1.63,0,0,0-.167-.578h-3.079c-.035,0-.069.039-.1.124a2.574,2.574,0,0,0-.11.47,8.9,8.9,0,0,0-.087,1.31v11.055c0,2.968-2.92,5.374-6.522,5.374H665.325a15.7,15.7,0,0,0-1.6.074h0a4.406,4.406,0,0,0-.56.089c-.127.031-.174.066-.174.1v2.463C662.986,599.064,663.033,599.1,663.173,599.136Zm24.832-3.334.1.593h0l-.1-.593Z"
                  transform="translate(73.187 90.98)" fill="#e8f8fc" opacity="0.62"/>
            <path d="M635.042,603.155a4.5,4.5,0,0,0,.526.083l3.313-.389h0l-3.313.39a15.754,15.754,0,0,0,1.625.076h21.023a15.847,15.847,0,0,0,1.611-.074,2.7,2.7,0,0,0,.7-.138v-2.536c0-.029-.047-.058-.15-.084a4.418,4.418,0,0,0-.571-.09,15.789,15.789,0,0,0-1.59-.073H637.193a15.726,15.726,0,0,0-1.6.073h0a4.418,4.418,0,0,0-.561.088c-.127.031-.173.067-.173.1v2.464C634.855,603.083,634.9,603.121,635.042,603.155Z"
                  transform="translate(71.031 87.044)" fill="#e8f8fc" opacity="0.62"/>
            <path d="M608.174,603.155a4.556,4.556,0,0,0,.527.083l3.313-.389h0l-3.313.39a15.754,15.754,0,0,0,1.625.076h21.023a15.556,15.556,0,0,0,1.61-.075,2.673,2.673,0,0,0,.7-.138v-2.536c0-.029-.047-.058-.15-.084a4.408,4.408,0,0,0-.572-.09,15.766,15.766,0,0,0-1.589-.073H610.326a15.726,15.726,0,0,0-1.6.073h0a4.427,4.427,0,0,0-.56.088c-.127.031-.174.067-.174.1v2.464C607.987,603.083,608.034,603.121,608.174,603.155Z"
                  transform="translate(68.971 87.044)" fill="#e8f8fc" opacity="0.62"/>
            <path d="M633.8,354.514a1.235,1.235,0,0,0,.085-.241,1.306,1.306,0,0,1-.1.265C633.789,354.529,633.8,354.523,633.8,354.514Z"
                  transform="translate(70.048 139.717)" fill="none"/>
            <path d="M633.775,354.619c0-.007.005-.016.009-.024a1.967,1.967,0,0,1-.26.363A2,2,0,0,0,633.775,354.619Z"
                  transform="translate(70.034 139.649)" fill="#23dd05"/>
            <path d="M658.487,546.648a2.422,2.422,0,0,1-.519.339A2.422,2.422,0,0,0,658.487,546.648Z"
                  transform="translate(71.882 96.495)" fill="none"/>
            <path d="M657.779,547.174h0c-.032.013-.066.021-.1.033C657.713,547.2,657.747,547.187,657.779,547.174Z"
                  transform="translate(71.846 96.402)" fill="none"/>
            <path d="M635.074,547.211a1.905,1.905,0,0,0,.292.071,2.094,2.094,0,0,1-.322-.085C635.055,547.2,635.063,547.208,635.074,547.211Z"
                  transform="translate(70.15 96.398)" fill="none"/>
            <path d="M655.684,567.009,659,569.74a1.791,1.791,0,0,0,.646-1.34V551.079a1.788,1.788,0,0,0-.634-1.327,2.509,2.509,0,0,0-1.174-.577h-21.6a1.97,1.97,0,0,0-.709.124,2.409,2.409,0,0,0-.769.47,1.781,1.781,0,0,0-.617,1.309V568.4a1.782,1.782,0,0,0,.627,1.32l0,0a2.43,2.43,0,0,0,.753.461,2.377,2.377,0,0,0,.862.143h20.974a2.509,2.509,0,0,0,.929-.154,2.451,2.451,0,0,0,.707-.433"
                  transform="translate(70.97 96.05)" fill="none"/>
            <path d="M685.38,542.253l-3.314-2.73h.005l3.313,2.73a1.792,1.792,0,0,0,.647-1.339V523.592a1.691,1.691,0,0,0-.358-1.022,2.09,2.09,0,0,0-.276-.3,2.519,2.519,0,0,0-1.174-.577h-21.6a1.994,1.994,0,0,0-.71.124,2.416,2.416,0,0,0-.768.47c-.038.035-.067.074-.1.11a1.741,1.741,0,0,0-.516,1.2v17.322a1.782,1.782,0,0,0,.627,1.319l0,0a2.457,2.457,0,0,0,.753.462,2.4,2.4,0,0,0,.863.143h20.973a2.5,2.5,0,0,0,.929-.154A2.468,2.468,0,0,0,685.38,542.253Z"
                  transform="translate(72.992 100.891)" fill="none"/>
            <path d="M655.174,543.334" transform="translate(71.654 97.079)" fill="#23dd05" stroke="#00c000"
                  stroke-miterlimit="10" stroke-width="1.188"/>
            <path d="M657.78,547.154c.066-.026.125-.063.188-.095-.063.031-.122.068-.189.095Z"
                  transform="translate(71.856 96.423)" fill="#23dd05"/>
            <path d="M635.015,547.144c.009,0,.02,0,.029.007a2.6,2.6,0,0,1-.441-.214A2.607,2.607,0,0,0,635.015,547.144Z"
                  transform="translate(70.121 96.444)" fill="#23dd05"/>
            <path d="M0,566.946Z" transform="translate(0 55)" fill="url(#b)"/>
            <path d="M1036.634,269.129a7.6,7.6,0,0,0,.692-3.117c0-7.621-11.944-13.8-26.678-13.8-9.2,0-17.314,2.41-22.109,6.076a16.128,16.128,0,0,0,.884-5.231c0-14.778-20.662-26.757-46.151-26.757-15.38,0-29.005,4.364-37.391,11.07a88.317,88.317,0,0,0-21.807-2.623c-25.7,0-46.54,10.088-46.54,22.532,0,3.889,2.032,7.548,5.618,10.74-17.374,2.7-27.817,6.175-27.817,9.961,0,8.632,54.314,15.631,121.315,15.631s121.315-7,121.315-15.631C1057.967,274.7,1050.086,271.647,1036.634,269.129Z"
                  transform="translate(143.203 -5.923)" fill="#fff" opacity="0.73"/>
            <path d="M171.712,95.141c0,2.22-2.484,4.019-5.549,4.019s-5.549-1.8-5.549-4.019,2.485-4.019,5.549-4.019S171.712,92.921,171.712,95.141Z"
                  transform="translate(-5.768 194.116)" fill="#155277"/>
            <path d="M50.722,155.942c0,2.22-2.484,4.019-5.549,4.019s-5.549-1.8-5.549-4.019,2.484-4.02,5.549-4.02S50.722,153.721,50.722,155.942Z"
                  transform="translate(9.264 175.547)" fill="#155277"/>
            <g transform="translate(46.305 250.029)">
                <ellipse cx="72.797" cy="69.21" rx="72.797" ry="69.21" transform="translate(0)" fill="#fafbfb"/>
                <g transform="translate(15.533 33.539)">
                    <ellipse cx="11.46" cy="10.895" rx="11.46" ry="10.895" transform="translate(0 0)" fill="#e0e0e0"/>
                    <path d="M58.41,101.707c0-6.017,5.13-10.9,11.46-10.9a11.756,11.756,0,0,1,7.6,2.741,11.694,11.694,0,0,0-8.577-3.673c-6.329,0-11.459,4.878-11.459,10.9a10.644,10.644,0,0,0,3.863,8.154A10.553,10.553,0,0,1,58.41,101.707Z"
                          transform="translate(-57.43 -89.88)" fill="#bdbdbd"/>
                    <path d="M69.342,89.88c-.076,0-.151,0-.226.006a11.172,11.172,0,0,1,11.234,10.89c0,6.017-5.13,10.895-11.46,10.895A11.2,11.2,0,0,1,57.435,100.99c0,.072-.005.143-.005.215,0,6.254,5.333,11.325,11.912,11.325s11.912-5.07,11.912-11.325S75.92,89.88,69.342,89.88Z"
                          transform="translate(-57.43 -89.88)" fill="#f5f5f5"/>
                </g>
                <g transform="translate(97.372 19.898)">
                    <ellipse cx="5.73" cy="5.447" rx="5.73" ry="5.447" transform="translate(0)" fill="#e0e0e0"/>
                    <path d="M165.341,79.237a5.594,5.594,0,0,1,5.73-5.448,5.874,5.874,0,0,1,3.8,1.371,5.845,5.845,0,0,0-4.288-1.836,5.594,5.594,0,0,0-5.73,5.448,5.321,5.321,0,0,0,1.932,4.077A5.275,5.275,0,0,1,165.341,79.237Z"
                          transform="translate(-164.85 -73.324)" fill="#bdbdbd"/>
                    <path d="M170.806,73.324l-.113,0a5.456,5.456,0,1,1-5.84,5.552c0,.036,0,.072,0,.107a5.964,5.964,0,1,0,5.956-5.662Z"
                          transform="translate(-164.85 -73.324)" fill="#f5f5f5"/>
                </g>
                <g transform="translate(108.856 67)">
                    <ellipse cx="14.298" cy="13.593" rx="14.298" ry="13.593" transform="translate(0 0)" fill="#e0e0e0"/>
                    <path d="M181.146,145.249c0-7.507,6.4-13.594,14.3-13.594a14.669,14.669,0,0,1,9.478,3.42,14.589,14.589,0,0,0-10.7-4.583c-7.9,0-14.3,6.086-14.3,13.594a13.28,13.28,0,0,0,4.82,10.174A13.166,13.166,0,0,1,181.146,145.249Z"
                          transform="translate(-179.923 -130.493)" fill="#bdbdbd"/>
                    <path d="M194.785,130.493c-.1,0-.188,0-.283.007,7.766.143,14.016,6.169,14.016,13.587,0,7.507-6.4,13.594-14.3,13.594-7.8,0-14.14-5.942-14.291-13.326,0,.09-.007.179-.007.269,0,7.8,6.654,14.13,14.862,14.13s14.862-6.327,14.862-14.13S202.993,130.493,194.785,130.493Z"
                          transform="translate(-179.923 -130.493)" fill="#f5f5f5"/>
                </g>
                <g transform="translate(70.648 98.758)">
                    <ellipse cx="14.298" cy="13.593" rx="14.298" ry="13.593" fill="#e0e0e0"/>
                    <path d="M131,183.794c0-7.507,6.4-13.593,14.3-13.593a14.668,14.668,0,0,1,9.478,3.419,14.588,14.588,0,0,0-10.7-4.582c-7.9,0-14.3,6.085-14.3,13.593a13.278,13.278,0,0,0,4.82,10.174A13.164,13.164,0,0,1,131,183.794Z"
                          transform="translate(-129.773 -169.039)" fill="#bdbdbd"/>
                    <path d="M144.635,169.039c-.094,0-.187,0-.282.007,7.766.143,14.016,6.169,14.016,13.586,0,7.507-6.4,13.594-14.3,13.594-7.8,0-14.14-5.942-14.291-13.325,0,.089-.007.178-.007.268,0,7.8,6.654,14.13,14.862,14.13s14.862-6.326,14.862-14.13S152.843,169.039,144.635,169.039Z"
                          transform="translate(-129.773 -169.039)" fill="#f5f5f5"/>
                </g>
                <g transform="translate(48.589 96.438)">
                    <ellipse cx="8.051" cy="7.655" rx="8.051" ry="7.655" fill="#e0e0e0"/>
                    <path d="M101.507,174.532a7.861,7.861,0,0,1,8.051-7.655,8.257,8.257,0,0,1,5.337,1.926,8.215,8.215,0,0,0-6.026-2.58,7.86,7.86,0,0,0-8.051,7.654,7.479,7.479,0,0,0,2.714,5.729A7.416,7.416,0,0,1,101.507,174.532Z"
                          transform="translate(-100.818 -166.223)" fill="#bdbdbd"/>
                    <path d="M109.187,166.223c-.053,0-.106,0-.159,0a7.667,7.667,0,1,1-8.206,7.8c0,.05,0,.1,0,.151a8.38,8.38,0,1,0,8.369-7.956Z"
                          transform="translate(-100.818 -166.223)" fill="#f5f5f5"/>
                </g>
                <g transform="translate(66.742 88.873)">
                    <ellipse cx="4.874" cy="4.633" rx="4.874" ry="4.633" transform="translate(0 0)" fill="#e0e0e0"/>
                    <path d="M125.062,162.071a4.758,4.758,0,0,1,4.874-4.634,5,5,0,0,1,3.231,1.166,4.974,4.974,0,0,0-3.648-1.562,4.758,4.758,0,0,0-4.874,4.634,4.528,4.528,0,0,0,1.643,3.468A4.489,4.489,0,0,1,125.062,162.071Z"
                          transform="translate(-124.645 -157.041)" fill="#bdbdbd"/>
                    <path d="M129.711,157.041l-.1,0a4.641,4.641,0,1,1-4.967,4.723c0,.03,0,.061,0,.091a5.072,5.072,0,1,0,5.066-4.817Z"
                          transform="translate(-124.645 -157.041)" fill="#f5f5f5"/>
                </g>
                <g transform="translate(130.845 56.15)">
                    <ellipse cx="5.512" cy="5.241" rx="5.512" ry="5.241" transform="translate(0 0)" fill="#e0e0e0"/>
                    <path d="M209.258,123.013a5.382,5.382,0,0,1,5.512-5.241,5.652,5.652,0,0,1,3.654,1.318,5.625,5.625,0,0,0-4.125-1.766,5.382,5.382,0,0,0-5.512,5.241,5.119,5.119,0,0,0,1.858,3.922A5.073,5.073,0,0,1,209.258,123.013Z"
                          transform="translate(-208.786 -117.324)" fill="#bdbdbd"/>
                    <path d="M214.516,117.324l-.109,0a5.249,5.249,0,1,1-5.618,5.341c0,.035,0,.069,0,.1a5.737,5.737,0,1,0,5.73-5.448Z"
                          transform="translate(-208.786 -117.324)" fill="#f5f5f5"/>
                </g>
                <g transform="translate(27.067 60.967)">
                    <ellipse cx="7.267" cy="6.909" rx="7.267" ry="6.909" transform="translate(0 0)" fill="#e0e0e0"/>
                    <path d="M73.191,130.671a7.1,7.1,0,0,1,7.267-6.909,7.456,7.456,0,0,1,4.817,1.738,7.417,7.417,0,0,0-5.439-2.329,7.094,7.094,0,0,0-7.267,6.908,6.75,6.75,0,0,0,2.449,5.171A6.691,6.691,0,0,1,73.191,130.671Z"
                          transform="translate(-72.569 -123.171)" fill="#bdbdbd"/>
                    <path d="M80.122,123.171c-.048,0-.1,0-.143,0a6.92,6.92,0,1,1-7.406,7.042c0,.045,0,.091,0,.136a7.563,7.563,0,1,0,7.553-7.181Z"
                          transform="translate(-72.569 -123.171)" fill="#f5f5f5"/>
                </g>
                <g transform="translate(44.781 36.885)">
                    <ellipse cx="6.088" cy="5.788" rx="6.088" ry="5.788" fill="#e0e0e0"/>
                    <path d="M96.34,100.225a5.945,5.945,0,0,1,6.089-5.789,6.245,6.245,0,0,1,4.036,1.457,6.212,6.212,0,0,0-4.557-1.951A5.944,5.944,0,0,0,95.82,99.73a5.654,5.654,0,0,0,2.052,4.332A5.607,5.607,0,0,1,96.34,100.225Z"
                          transform="translate(-95.82 -93.942)" fill="#bdbdbd"/>
                    <path d="M102.149,93.942l-.12,0a5.8,5.8,0,1,1-6.205,5.9c0,.038,0,.076,0,.114a6.337,6.337,0,1,0,6.329-6.016Z"
                          transform="translate(-95.82 -93.942)" fill="#f5f5f5"/>
                </g>
                <g transform="translate(35.791 104.236)">
                    <ellipse cx="4.106" cy="3.904" rx="4.106" ry="3.904" transform="translate(0)" fill="#e0e0e0"/>
                    <path d="M84.371,179.925a4.009,4.009,0,0,1,4.106-3.9A4.212,4.212,0,0,1,91.2,177a4.186,4.186,0,0,0-3.073-1.316,4.009,4.009,0,0,0-4.106,3.9,3.813,3.813,0,0,0,1.384,2.922A3.78,3.78,0,0,1,84.371,179.925Z"
                          transform="translate(-84.02 -175.688)" fill="#bdbdbd"/>
                    <path d="M88.288,175.688l-.081,0a3.91,3.91,0,1,1-4.185,3.979c0,.026,0,.051,0,.077a4.273,4.273,0,1,0,4.268-4.057Z"
                          transform="translate(-84.02 -175.688)" fill="#f5f5f5"/>
                </g>
                <path d="M109.839,171.614c-32.569,0-60.522-18.783-72.533-45.576-.171,1.939-.264,3.9-.264,5.88,0,38.223,32.592,69.211,72.8,69.211s72.8-30.987,72.8-69.211c0-1.981-.092-3.942-.264-5.88C170.361,152.831,142.407,171.614,109.839,171.614Z"
                      transform="translate(-37.041 -62.709)" fill="#212121" opacity="0.1"/>
                <path d="M110.444,192.024c-30.45,0-56.978-15.948-70.86-39.533,7.562,30.552,36.416,53.3,70.86,53.3s63.3-22.744,70.86-53.3C167.421,176.077,140.894,192.024,110.444,192.024Z"
                      transform="translate(-37.647 -67.367)" fill="#212121" opacity="0.1"/>
            </g>
            <ellipse cx="4.276" cy="4.034" rx="4.276" ry="4.034" transform="translate(726.884 252.094)" fill="#fafbfb"/>
            <ellipse cx="5.119" cy="5.156" rx="5.119" ry="5.156" transform="translate(54.443 495.371)" fill="#fafbfb"
                     opacity="0.72"/>
            <ellipse cx="5.095" cy="3.718" rx="5.095" ry="3.718" transform="translate(1206.434 143.252)" fill="#fafbfb"
                     opacity="0.72"/>
            <ellipse cx="3.08" cy="3.318" rx="3.08" ry="3.318" transform="translate(59.513 227.472)" fill="#fafbfb"
                     opacity="0.72"/>
            <ellipse cx="4.58" cy="3.318" rx="4.58" ry="3.318" transform="translate(602.952 338.531)" fill="#fafbfb"
                     opacity="0.72"/>
            <ellipse cx="4.58" cy="3.318" rx="4.58" ry="3.318" transform="translate(1328.703 397.67)" fill="#fafbfb"
                     opacity="0.72"/>
            <ellipse cx="107.772" cy="99.082" rx="107.772" ry="99.082"
                     transform="matrix(1, -0.017, 0.017, 1, 5.866, 221.35)" opacity="0.5" fill="url(#d)"/>
            <path d="M1367,643.007,0,640l1,96.219H1366.924Z" transform="translate(0 23.781)" fill="#27025b"/>
            <path d="M1036.651,373.548a26.029,26.029,0,0,1-3.145-12.3c0-18.863,21.06-34.155,47.038-34.155,18.357,0,34.255,7.635,42.006,18.77,7.594-8.946,20.8-14.867,35.828-14.867,19.861,0,36.55,10.344,41.291,24.346,8.789-4.337,21.451-7.059,35.528-7.059,26.539,0,48.054,9.674,48.054,21.609a10.093,10.093,0,0,1-.441,2.927h1.118c9.12,0,16.582,6.148,16.582,13.662h0c0,7.514-7.462,13.662-16.582,13.662H1041.966c-9.12,0-16.582-6.148-16.582-13.662h0C1025.384,380.5,1030.118,375.385,1036.651,373.548Z"
                  transform="translate(-573.825 -280.013)" fill="#fff" opacity="0.63"/>
            <path d="M551.865,210.219h-6.149c-1.367-9.107-13.065-16.222-27.3-16.222a34.937,34.937,0,0,0-20.606,6.127c-2.51-12.552-23.468-22.349-48.95-22.349-16.958,0-31.911,4.339-40.758,10.941-7.325-4.054-17.211-6.542-28.09-6.542-22.58,0-40.884,10.711-40.884,23.921a14.466,14.466,0,0,0,.607,4.124h-8.4c-8.955,0-16.282,5.692-16.282,12.649h0c0,6.956,7.327,12.648,16.282,12.648h220.53c8.956,0,16.283-5.692,16.283-12.648h0C568.148,215.91,560.816,210.219,551.865,210.219Z"
                  transform="translate(1.151 112.503)" fill="#fff" opacity="0.57"/>
            <path d="M638.881,602.849h0l-3.313.39a15.754,15.754,0,0,0,1.625.076h21.023a15.847,15.847,0,0,0,1.611-.074,2.7,2.7,0,0,0,.7-.138v-2.536c0-.029-.047-.058-.15-.084a4.418,4.418,0,0,0-.571-.09,15.789,15.789,0,0,0-1.59-.073H637.193a15.726,15.726,0,0,0-1.6.073h0a4.418,4.418,0,0,0-.561.088c-.127.031-.173.067-.173.1v2.464Z"
                  transform="translate(19.248 63.408)" fill="#e8f8fc" opacity="0.62"/>
            <path d="M608.174,603.155a4.556,4.556,0,0,0,.527.083l3.313-.389h0l-3.313.39a15.754,15.754,0,0,0,1.625.076h21.023a15.556,15.556,0,0,0,1.61-.075,2.673,2.673,0,0,0,.7-.138v-2.536c0-.029-.047-.058-.15-.084a4.408,4.408,0,0,0-.572-.09,15.766,15.766,0,0,0-1.589-.073H610.326a15.726,15.726,0,0,0-1.6.073h0a4.427,4.427,0,0,0-.56.088c-.127.031-.174.067-.174.1v2.464C607.987,603.083,608.034,603.121,608.174,603.155Z"
                  transform="translate(18.494 63.408)" fill="#e8f8fc" opacity="0.62"/>
            <g transform="translate(-2 580.356)">
                <g transform="translate(0 79.044)">
                    <path d="M1365.736,594.1l-809.78-6.435L.281,583.218l-1.545,34.943,1366.468,9.69Z"
                          transform="translate(1.264 -583.218)" fill="#6b5703"/>
                    <path d="M1362.17,598.591c-551.245-4.276-854.692-8.115-1353.344-11.349l41.01,4.825,1290.291,9.64Z"
                          transform="translate(1.264 -583.927)" fill="#59571e"/>
                </g>
            </g>
            <path d="M1209.038,619.227-20.463,631.7s-135.408-7.017-134.7,2.315c.511,6.691,1.938,45.837,1.938,45.837l407.431-10.313,953.927-24.146Z"
                  transform="translate(155.161 71.865)" fill="#36067a"/>
        </g>
    </g>
</svg>