<svg xmlns="http://www.w3.org/2000/svg" xmlns:xlink="http://www.w3.org/1999/xlink" width="1366" height="768" viewBox="0 0 1366 768"><defs><clipPath id="a"><rect width="1400.4" height="57.673" fill="none"/></clipPath><linearGradient id="b" y1="0.5" x2="1" y2="0.5" gradientUnits="objectBoundingBox"><stop offset="0" stop-color="#0a3f60"/><stop offset="0" stop-color="#002032"/></linearGradient><linearGradient id="c" y1="0.5" x2="1" y2="0.5" gradientUnits="objectBoundingBox"><stop offset="0.437" stop-color="#0a3f60"/><stop offset="1" stop-color="#002032"/></linearGradient><linearGradient id="h" x1="0" x2="1" xlink:href="#c"/><linearGradient id="k" y1="0.5" x2="1" y2="0.5" gradientUnits="objectBoundingBox"><stop offset="0" stop-color="#04253a"/><stop offset="0.437" stop-color="#0a3f60"/><stop offset="1" stop-color="#002032"/></linearGradient><clipPath id="ad"><rect width="1366" height="768"/></clipPath></defs><g id="ac" clip-path="url(#ad)"><g transform="translate(44 185.321)" clip-path="url(#a)"><text transform="translate(670 187.492)" fill="#7f7f7f" font-size="11" font-family="Roboto-Bold, Roboto" font-weight="700"><tspan x="0" y="0"> </tspan></text></g><path d="M1002.493,319.848c0,2.22-2.184,4.019-4.878,4.019s-4.879-1.8-4.879-4.019,2.184-4.02,4.879-4.02S1002.493,317.628,1002.493,319.848Z" transform="translate(98.583 390.172)" fill="#155277"/><path d="M508.757,363.068c0,2.22-2.185,4.019-4.879,4.019s-4.878-1.8-4.878-4.019,2.184-4.02,4.878-4.02S508.757,360.847,508.757,363.068Z" transform="translate(88.171 344.952)" fill="#155277"/><path d="M327.457,281.728c0,2.22-2.184,4.019-4.879,4.019s-4.878-1.8-4.878-4.019,2.184-4.019,4.878-4.019S327.457,279.508,327.457,281.728Z" transform="translate(47.433 428.291)" fill="#155277"/><path d="M513.635,209.942c0,2.22-2.184,4.019-4.879,4.019s-4.878-1.8-4.878-4.019,2.184-4.02,4.878-4.02S513.635,207.721,513.635,209.942Z" transform="translate(88.541 498.078)" fill="#155277"/><path d="M1139.872,308.19c0,2.22-2.184,4.02-4.878,4.02s-4.878-1.8-4.878-4.02,2.184-4.019,4.878-4.019S1139.872,305.97,1139.872,308.19Z" transform="translate(127.264 401.829)" fill="#155277"/><path d="M1139.872,308.19c0,2.22-2.184,4.02-4.878,4.02s-4.878-1.8-4.878-4.02,2.184-4.019,4.878-4.019S1139.872,305.97,1139.872,308.19Z" transform="translate(-49.736 401.829)" fill="#155277"/><ellipse cx="18.518" cy="15.257" rx="18.518" ry="15.257" transform="translate(449.205 683)" fill="#fafbfb" opacity="0.526"/><ellipse cx="11.967" cy="9.86" rx="11.967" ry="9.86" transform="translate(1262.258 323.959)" fill="#fafbfb"/><ellipse cx="11.967" cy="9.86" rx="11.967" ry="9.86" transform="translate(1085.258 323.959)" fill="#fafbfb"/><path d="M989.236,269.129a9.373,9.373,0,0,0,.544-3.117c0-7.621-9.386-13.8-20.964-13.8-7.231,0-13.606,2.41-17.374,6.076a20.144,20.144,0,0,0,.7-5.231c0-14.778-16.237-26.757-36.266-26.757-12.086,0-22.793,4.364-29.383,11.07a55.39,55.39,0,0,0-17.136-2.623c-20.2,0-36.572,10.088-36.572,22.532a16.183,16.183,0,0,0,4.415,10.74c-13.653,2.7-21.859,6.175-21.859,9.961,0,8.632,42.681,15.631,95.332,15.631s95.332-7,95.332-15.631C1006,274.7,999.807,271.647,989.236,269.129Z" transform="translate(153.535 420.698)" fill="#fff" opacity="0.73"/><path d="M872.339,195.68c0,2.22-2.484,4.02-5.549,4.02s-5.549-1.8-5.549-4.02,2.484-4.019,5.549-4.019S872.339,193.46,872.339,195.68Z" transform="translate(88.683 514.339)" fill="#155277"/><path d="M763.067,254.19c0,2.22-2.484,4.02-5.549,4.02s-5.549-1.8-5.549-4.02,2.484-4.019,5.549-4.019S763.067,251.97,763.067,254.19Z" transform="translate(80.395 455.829)" fill="#155277"/><ellipse cx="28.638" cy="20.743" rx="28.638" ry="20.743" transform="translate(1271.396 672)" fill="#fafbfb"/><ellipse cx="28.638" cy="20.743" rx="28.638" ry="20.743" transform="translate(1094.396 672)" fill="#fafbfb"/><ellipse cx="7.119" cy="5.156" rx="7.119" ry="5.156" transform="translate(68.442 704)" fill="#fafbfb" opacity="0.72"/><ellipse cx="7.119" cy="5.156" rx="7.119" ry="5.156" transform="translate(421.948 703)" fill="#fafbfb" opacity="0.72"/><ellipse cx="13.612" cy="9.86" rx="13.612" ry="9.86" transform="translate(1080.211 694)" fill="#fafbfb" opacity="0.72"/><path d="M504,337.232V320H467v17.232H440.009l-2.072,211.341h91.992L532,337.232Z" transform="translate(85.722 164)" fill="url(#b)"/><path d="M1036.651,373.548a26.029,26.029,0,0,1-3.145-12.3c0-18.863,21.06-34.155,47.038-34.155,18.357,0,34.255,7.635,42.006,18.77,7.594-8.946,20.8-14.867,35.828-14.867,19.861,0,36.55,10.344,41.291,24.346,8.789-4.337,21.451-7.059,35.528-7.059,26.539,0,48.054,9.674,48.054,21.609a10.093,10.093,0,0,1-.441,2.927h1.118c9.12,0,16.582,6.148,16.582,13.662h0c0,7.514-7.462,13.662-16.582,13.662H1041.966c-9.12,0-16.582-6.148-16.582-13.662h0C1025.384,380.5,1030.118,375.385,1036.651,373.548Z" transform="translate(9.264 313.906)" fill="#fff"/><path d="M0,0H152.407V435.447H0Z" transform="translate(1176.264 278.204)" fill="#03293f"/><path d="M0,0H136V394.651H0Z" transform="translate(1058.264 319)" fill="#012337"/><path d="M1068.78,533.321h-45.844l1.033-181.406h45.844Z" transform="translate(153.328 181.085)" fill="url(#c)"/><path d="M798.928,560.256H706.936l2.072-211.341H801Z" transform="translate(80.439 154.085)" fill="#00a9ec"/><path d="M551.865,210.219h-6.149c-1.367-9.107-13.065-16.222-27.3-16.222a34.937,34.937,0,0,0-20.606,6.127c-2.51-12.552-23.468-22.349-48.95-22.349-16.958,0-31.911,4.339-40.758,10.941-7.325-4.054-17.211-6.542-28.09-6.542-22.58,0-40.884,10.711-40.884,23.921a14.466,14.466,0,0,0,.607,4.124h-8.4c-8.955,0-16.282,5.692-16.282,12.649h0c0,6.956,7.327,12.648,16.282,12.648h220.53c8.956,0,16.283-5.692,16.283-12.648h0C568.148,215.91,560.816,210.219,551.865,210.219Z" transform="translate(79.398 476.226)" fill="#fff" opacity="0.437"/><rect width="105.319" height="400.584" transform="translate(527.32 314)" fill="url(#c)"/><rect width="59.319" height="328.905" transform="translate(539.32 383)" fill="url(#c)"/><rect width="105.319" height="306.659" transform="translate(341.32 407)" opacity="0.95" fill="url(#c)"/><rect width="105.319" height="138.582" transform="translate(374.32 575)" opacity="0.95" fill="url(#c)"/><rect width="105.319" height="262.992" transform="translate(1236.32 451)" fill="url(#h)"/><rect width="105.319" height="141.878" transform="translate(1262.32 572)" fill="url(#h)"/><rect width="105.319" height="262.992" transform="translate(1118.32 451)" fill="url(#c)"/><rect width="105.319" height="255.577" transform="translate(787.238 459)" fill="url(#k)"/><rect width="105.319" height="400.584" transform="translate(854.998 314)" opacity="0.95" fill="url(#k)"/><path d="M215.256,488.146v3.614L16.936,488.146V424.127H33.7V407.089H51.413V389.02H72.288V371.466H92.848V355.978h19.611V321.387h102.8Z" transform="translate(16.745 222.113)" fill="#0d3457" stroke="#707070" stroke-width="1"/><path d="M1235.935,249.68c0,2.22-2.184,4.02-4.878,4.02s-4.878-1.8-4.878-4.02,2.184-4.019,4.878-4.019S1235.935,247.46,1235.935,249.68Z" transform="translate(40.455 460.339)" fill="#155277"/><path d="M1002.493,319.848c0,2.22-2.184,4.019-4.878,4.019s-4.879-1.8-4.879-4.019,2.184-4.02,4.879-4.02S1002.493,317.628,1002.493,319.848Z" transform="translate(88.983 390.172)" fill="#155277"/><path d="M508.757,363.068c0,2.22-2.185,4.019-4.879,4.019s-4.878-1.8-4.878-4.019,2.184-4.02,4.878-4.02S508.757,360.847,508.757,363.068Z" transform="translate(43.323 344.952)" fill="#155277"/><path d="M327.457,281.728c0,2.22-2.184,4.019-4.879,4.019s-4.878-1.8-4.878-4.019,2.184-4.019,4.878-4.019S327.457,279.508,327.457,281.728Z" transform="translate(11.307 428.291)" fill="#155277"/><path d="M513.635,209.942c0,2.22-2.184,4.019-4.879,4.019s-4.878-1.8-4.878-4.019,2.184-4.02,4.878-4.02S513.635,207.721,513.635,209.942Z" transform="translate(43.458 498.078)" fill="#155277"/><path d="M1139.872,308.19c0,2.22-2.184,4.02-4.878,4.02s-4.878-1.8-4.878-4.02,2.184-4.019,4.878-4.019S1139.872,305.97,1139.872,308.19Z" transform="translate(40.455 401.829)" fill="#155277"/><path d="M1139.872,308.19c0,2.22-2.184,4.02-4.878,4.02s-4.878-1.8-4.878-4.02,2.184-4.019,4.878-4.019S1139.872,305.97,1139.872,308.19Z" transform="translate(-58.847 401.829)" fill="#155277"/><ellipse cx="11.967" cy="9.86" rx="11.967" ry="9.86" transform="translate(1175.448 324.754)" fill="#fafbfb"/><path d="M872.339,195.68c0,2.22-2.484,4.02-5.549,4.02s-5.549-1.8-5.549-4.02,2.484-4.019,5.549-4.019S872.339,193.46,872.339,195.68Z" transform="translate(26.366 184.86)" fill="#155277"/><ellipse cx="28.638" cy="20.743" rx="28.638" ry="20.743" transform="translate(1184.586 672)" fill="#fafbfb"/><ellipse cx="28.638" cy="20.743" rx="28.638" ry="20.743" transform="translate(1083.006 672)" fill="#fafbfb"/><ellipse cx="7.119" cy="5.156" rx="7.119" ry="5.156" transform="translate(383.212 703)" fill="#fafbfb" opacity="0.72"/><ellipse cx="13.612" cy="9.86" rx="13.612" ry="9.86" transform="translate(1070.518 694)" fill="#fafbfb" opacity="0.72"/><path d="M504,337.232V320H467v17.232H440.009l-2.072,211.341h91.992L532,337.232Z" transform="translate(42.153 164)" fill="url(#b)"/><path d="M882,344.232h0c0-9.517-9.364-17.232-20.915-17.232H845v17.232H818.009l-2.073,211.341h91.992L910,344.232Z" transform="translate(26.418 159)" fill="#00a9ec"/><path d="M1036.651,373.548a26.029,26.029,0,0,1-3.145-12.3c0-18.863,21.06-34.155,47.038-34.155,18.357,0,34.255,7.635,42.006,18.77,7.594-8.946,20.8-14.867,35.828-14.867,19.861,0,36.55,10.344,41.291,24.346,8.789-4.337,21.451-7.059,35.528-7.059,26.539,0,48.054,9.674,48.054,21.609a10.093,10.093,0,0,1-.441,2.927h1.118c9.12,0,16.582,6.148,16.582,13.662h0c0,7.514-7.462,13.662-16.582,13.662H1041.966c-9.12,0-16.582-6.148-16.582-13.662h0C1025.384,380.5,1030.118,375.385,1036.651,373.548Z" transform="translate(-63.825 313.906)" fill="#fff" opacity="0.474"/><path d="M0,0H136V394.651H0Z" transform="translate(1089.455 319)" fill="#012337"/><path d="M0,0H83.075V324.682H0Z" transform="translate(1216.455 389)" fill="#012337"/><path d="M-3506-338.349V-843.471h136v505.122Zm25.984-505.151v-18h58v18Z" transform="translate(4492.516 1052)" fill="#06324d" stroke="rgba(0,0,0,0)" stroke-width="1"/><path d="M1068.78,533.321h-45.844l1.033-181.406h45.844Z" transform="translate(66.519 181.085)" fill="url(#c)"/><path d="M798.928,560.256H706.936l2.072-211.341H801Z" transform="translate(23.169 154.085)" fill="#00a9ec"/><rect width="105.319" height="478.584" transform="translate(482.074 236)" fill="url(#h)"/><rect width="59.319" height="328.905" transform="translate(468.692 385)" fill="url(#c)"/><rect width="105.319" height="306.659" transform="translate(304.903 407)" opacity="0.95" fill="url(#c)"/><rect width="105.319" height="266.288" transform="translate(334.903 448)" opacity="0.95" fill="url(#c)"/><rect width="105.319" height="264.64" transform="translate(176.903 449)" opacity="0.95" fill="url(#c)"/><rect width="105.319" height="138.582" transform="translate(336.337 576)" opacity="0.95" fill="url(#c)"/><rect width="105.319" height="262.992" transform="translate(1149.511 451)" fill="url(#c)"/><rect width="153.319" height="141.878" transform="translate(1175.511 572)" fill="url(#c)"/><path d="M0,0H105.319V262.992H0Z" transform="translate(975.822 451)" fill="url(#c)"/><rect width="105.319" height="450.584" transform="translate(620.109 264)" fill="url(#c)"/><rect width="105.319" height="255.577" transform="translate(716.654 459)" fill="url(#k)"/><rect width="105.319" height="400.584" transform="translate(785 314)" opacity="0.95" fill="url(#k)"/><rect width="78.319" height="263.816" transform="translate(883.332 450)" fill="url(#k)"/><rect width="78.319" height="215.206" transform="translate(883.332 499)" fill="url(#k)"/><rect width="139.617" height="163.633" transform="translate(236.702 550)" fill="#073755"/><path d="M215.256,488.146v3.614L16.936,488.146V424.127H33.7V407.089H51.413V389.02H72.288V371.466H92.848V355.978h19.611V321.387h102.8Z" transform="translate(3.745 222.113)" fill="#0d3457" stroke="#707070" stroke-width="1"/><g transform="translate(401.148 642)"><g transform="translate(580.762)"><path d="M1000.869,600.152s-.1-49.337,4-58.856l-1.531-.667s-4.616,41.189-4.243,59.549Z" transform="translate(-987.546 -527.809)" fill="#896c54"/><path d="M1003.2,540.519c2.609,1.7-1.022,6.687-8.561,7.21C994.635,547.729,999.449,538.074,1003.2,540.519Z" transform="translate(-987.546 -527.72)" fill="#acce32"/><path d="M1005.429,532.575c-2.054-2.293-1.105-4.765,4.209-7.506C1009.638,525.069,1012.048,530.992,1005.429,532.575Z" transform="translate(-987.546 -525.069)" fill="#acce32"/><path d="M1003.643,541.744c2.185-1.254,5.187,1.945,3.216,7.994C1006.859,549.738,1000.253,543.683,1003.643,541.744Z" transform="translate(-987.546 -527.958)" fill="#acce32"/><path d="M1002.7,538.592c-.322-2.542-6.748-3.233-10.907.979C991.795,539.571,1003.164,542.243,1002.7,538.592Z" transform="translate(-987.546 -527.09)" fill="#bece46"/><path d="M1002.418,538.449c.6-7.066-7.875-3.539-14.872-4.063,12.612-12.256,19.461-3.014,16.682,4.383Z" transform="translate(-987.546 -525.659)" fill="#acce32"/><path d="M1003.617,541.688c6.24-2.83,7.06,4.057,10.906,8.562,5.259-12.655-6.574-14.066-12.069-9.665Z" transform="translate(-987.546 -527.403)" fill="#acce32"/><path d="M1004.526,538.894c4.786-6.128,8.648-.983,15.928.826-2.821-13.811-13.7-7.657-17.3-1.058Z" transform="translate(-987.546 -526.188)" fill="#acce32"/></g></g><g transform="translate(258.148 641)"><path d="M389.869,591.152s-.1-49.337,4-58.856l-1.531-.667s-4.616,41.189-4.243,59.549Z" transform="translate(-376.546 -518.809)" fill="#896c54"/><path d="M392.2,531.519c2.609,1.7-1.022,6.687-8.561,7.21C383.635,538.729,388.449,529.074,392.2,531.519Z" transform="translate(-376.546 -518.72)" fill="#acce32"/><path d="M394.429,523.575c-2.054-2.293-1.1-4.765,4.209-7.506C398.638,516.069,401.048,521.992,394.429,523.575Z" transform="translate(-376.546 -516.069)" fill="#acce32"/><path d="M392.643,532.744c2.185-1.254,5.187,1.945,3.216,7.994C395.859,540.738,389.253,534.683,392.643,532.744Z" transform="translate(-376.546 -518.958)" fill="#acce32"/><path d="M391.7,529.592c-.322-2.542-6.748-3.233-10.907.979C380.8,530.571,392.164,533.243,391.7,529.592Z" transform="translate(-376.546 -518.09)" fill="#bece46"/><path d="M391.418,529.449c.6-7.066-7.875-3.539-14.872-4.063,12.612-12.256,19.461-3.014,16.682,4.383Z" transform="translate(-376.546 -516.659)" fill="#acce32"/><path d="M392.617,532.688c6.24-2.83,7.06,4.057,10.906,8.562,5.259-12.655-6.574-14.066-12.069-9.665Z" transform="translate(-376.546 -518.403)" fill="#acce32"/><path d="M393.526,529.894c4.786-6.128,8.648-.983,15.928.826-2.821-13.811-13.7-7.657-17.305-1.058Z" transform="translate(-376.546 -517.188)" fill="#acce32"/></g><g transform="translate(68.148 642)"><path d="M392.068,591.152s.1-49.337-4-58.856l1.531-.667s4.616,41.189,4.243,59.549Z" transform="translate(-372.483 -518.809)" fill="#896c54"/><path d="M384.476,531.519c-2.609,1.7,1.022,6.687,8.561,7.21C393.037,538.729,388.223,529.074,384.476,531.519Z" transform="translate(-367.218 -518.72)" fill="#acce32"/><path d="M398.061,523.575c2.054-2.293,1.1-4.765-4.209-7.506C393.852,516.069,391.442,521.992,398.061,523.575Z" transform="translate(-383.036 -516.069)" fill="#acce32"/><path d="M395.533,532.744c-2.185-1.254-5.187,1.945-3.216,7.994C392.317,540.738,398.923,534.683,395.533,532.744Z" transform="translate(-378.722 -518.958)" fill="#acce32"/><path d="M380.809,529.592c.322-2.542,6.748-3.233,10.907.979C391.716,530.571,380.347,533.243,380.809,529.592Z" transform="translate(-363.057 -518.09)" fill="#bece46"/><path d="M378.97,529.449c-.6-7.066,7.875-3.539,14.872-4.063-12.612-12.256-19.461-3.014-16.682,4.383Z" transform="translate(-360.934 -516.659)" fill="#acce32"/><path d="M403.676,532.688c-6.24-2.83-7.06,4.057-10.906,8.562-5.259-12.655,6.574-14.066,12.069-9.665Z" transform="translate(-386.839 -518.403)" fill="#acce32"/><path d="M408.077,529.894c-4.786-6.128-8.648-.983-15.928.826,2.821-13.811,13.7-7.657,17.3-1.058Z" transform="translate(-392.149 -517.188)" fill="#acce32"/></g><g transform="translate(82.074 574)"><path d="M83.4,577.762s1.7-77-3.528-91.914l2.09-1.019s4.929,64.354,3.838,93Z" transform="translate(-58.81 -440.85)" fill="#896c54"/><path d="M82.155,484.665c-3.581,2.615,1.168,10.451,11.341,11.389C93.5,496.054,87.3,480.908,82.155,484.665Z" transform="translate(-58.81 -440.99)" fill="#acce32"/><path d="M79.305,472.206c2.848-3.546,1.646-7.419-5.451-11.781C73.854,460.425,70.41,469.63,79.305,472.206Z" transform="translate(-58.81 -441.425)" fill="#acce32"/><path d="M81.522,486.561c-2.918-1.991-7.076,2.956-4.6,12.425C76.92,498.986,86.038,489.64,81.522,486.561Z" transform="translate(-58.81 -440.908)" fill="#acce32"/><path d="M82.863,481.677c.516-3.962,9.22-4.939,14.707,1.7C97.57,483.378,82.124,487.366,82.863,481.677Z" transform="translate(-58.81 -441.616)" fill="#acce32"/><path d="M83.207,481.46c-.585-11.036,10.756-5.4,20.227-6.1-16.652-19.328-26.2-5.011-22.682,6.576Z" transform="translate(-58.81 -442.383)" fill="#acce32"/><path d="M81.538,486.457c-8.342-4.515-9.67,6.221-15.011,13.189-6.706-19.832,9.333-21.846,16.619-14.89Z" transform="translate(-58.81 -440.766)" fill="#acce32"/><path d="M80.362,482.07c-6.275-9.642-11.657-1.671-21.552,1.038,4.251-21.512,18.759-11.733,23.418-1.375Z" transform="translate(-58.81 -440.159)" fill="#acce32"/></g><g transform="translate(1009.074 579)"><path d="M83.4,577.762s1.7-77-3.528-91.914l2.09-1.019s4.929,64.354,3.838,93Z" transform="translate(-58.81 -440.85)" fill="#896c54"/><path d="M82.155,484.665c-3.581,2.615,1.168,10.451,11.341,11.389C93.5,496.054,87.3,480.908,82.155,484.665Z" transform="translate(-58.81 -440.99)" fill="#acce32"/><path d="M79.305,472.206c2.848-3.546,1.646-7.419-5.451-11.781C73.854,460.425,70.41,469.63,79.305,472.206Z" transform="translate(-58.81 -441.425)" fill="#acce32"/><path d="M81.522,486.561c-2.918-1.991-7.076,2.956-4.6,12.425C76.92,498.986,86.038,489.64,81.522,486.561Z" transform="translate(-58.81 -440.908)" fill="#acce32"/><path d="M82.863,481.677c.516-3.962,9.22-4.939,14.707,1.7C97.57,483.378,82.124,487.366,82.863,481.677Z" transform="translate(-58.81 -441.616)" fill="#acce32"/><path d="M83.207,481.46c-.585-11.036,10.756-5.4,20.227-6.1-16.652-19.328-26.2-5.011-22.682,6.576Z" transform="translate(-58.81 -442.383)" fill="#acce32"/><path d="M81.538,486.457c-8.342-4.515-9.67,6.221-15.011,13.189-6.706-19.832,9.333-21.846,16.619-14.89Z" transform="translate(-58.81 -440.766)" fill="#acce32"/><path d="M80.362,482.07c-6.275-9.642-11.657-1.671-21.552,1.038,4.251-21.512,18.759-11.733,23.418-1.375Z" transform="translate(-58.81 -440.159)" fill="#acce32"/></g><g transform="translate(731.148 638)"><g transform="translate(580.762)"><path d="M1000.869,600.152s-.1-49.337,4-58.856l-1.531-.667s-4.616,41.189-4.243,59.549Z" transform="translate(-987.546 -527.809)" fill="#896c54"/><path d="M1003.2,540.519c2.609,1.7-1.022,6.687-8.561,7.21C994.635,547.729,999.449,538.074,1003.2,540.519Z" transform="translate(-987.546 -527.72)" fill="#acce32"/><path d="M1005.429,532.575c-2.054-2.293-1.105-4.765,4.209-7.506C1009.638,525.069,1012.048,530.992,1005.429,532.575Z" transform="translate(-987.546 -525.069)" fill="#acce32"/><path d="M1003.643,541.744c2.185-1.254,5.187,1.945,3.216,7.994C1006.859,549.738,1000.253,543.683,1003.643,541.744Z" transform="translate(-987.546 -527.958)" fill="#acce32"/><path d="M1002.7,538.592c-.322-2.542-6.748-3.233-10.907.979C991.795,539.571,1003.164,542.243,1002.7,538.592Z" transform="translate(-987.546 -527.09)" fill="#bece46"/><path d="M1002.418,538.449c.6-7.066-7.875-3.539-14.872-4.063,12.612-12.256,19.461-3.014,16.682,4.383Z" transform="translate(-987.546 -525.659)" fill="#acce32"/><path d="M1003.617,541.688c6.24-2.83,7.06,4.057,10.906,8.562,5.259-12.655-6.574-14.066-12.069-9.665Z" transform="translate(-987.546 -527.403)" fill="#acce32"/><path d="M1004.526,538.894c4.786-6.128,8.648-.983,15.928.826-2.821-13.811-13.7-7.657-17.3-1.058Z" transform="translate(-987.546 -526.188)" fill="#acce32"/></g></g></g></svg>