<svg id="Facebook" xmlns="http://www.w3.org/2000/svg" width="28.103" height="27.19" viewBox="0 0 28.103 27.19">
  <path id="back" d="M0,13.595A13.829,13.829,0,0,1,14.051,0,13.829,13.829,0,0,1,28.1,13.595,13.829,13.829,0,0,1,14.051,27.19,13.829,13.829,0,0,1,0,13.595Z" fill="#3b5998"/>
  <path id="Shape" d="M4.743,12.6V6.3h2.11l.28-2.171H4.743l0-1.086c0-.566.065-.869,1.052-.869H7.118V0H5.008C2.473,0,1.58,1.053,1.58,2.824v1.3H0V6.3H1.58v6.3Z" transform="translate(10.773 8.001)" fill="#fff"/>
</svg>
