<svg id="Group_1306" data-name="Group 1306" xmlns="http://www.w3.org/2000/svg" width="127.241" height="69.165" viewBox="0 0 127.241 69.165">
  <g id="Group_1198" data-name="Group 1198" transform="translate(66.469)">
    <g id="Group_1195" data-name="Group 1195">
      <g id="Group_801" data-name="Group 801" transform="translate(0.218 24.079)">
        <path id="Path_1517" data-name="Path 1517" d="M-142.644-38.329a1.013,1.013,0,0,0-.253-.281v0a1.288,1.288,0,0,0-.782-.256h-10.115a1.284,1.284,0,0,0-.774.252.929.929,0,0,0-.337.465v8.561a.576.576,0,0,0,.072.282.991.991,0,0,0,.276.3,1.29,1.29,0,0,0,.764.244h10.115a1.289,1.289,0,0,0,.771-.248h0a1,1,0,0,0,.27-.3.685.685,0,0,0,.083-.342v-8.314A.708.708,0,0,0-142.644-38.329Z" transform="translate(154.905 38.868)" fill="#ffc107" stroke="#ba9c09" stroke-miterlimit="10" stroke-width="0.5"/>
        <path id="Path_1518" data-name="Path 1518" d="M-142.9-27.115v0a1.282,1.282,0,0,0-.782-.256h-10.115a1.284,1.284,0,0,0-.774.251.937.937,0,0,0-.337.465V-18.1a.573.573,0,0,0,.072.282.98.98,0,0,0,.276.3,1.284,1.284,0,0,0,.764.245h10.115a1.29,1.29,0,0,0,.771-.249h0a.992.992,0,0,0,.27-.3.68.68,0,0,0,.083-.342v-8.313a.713.713,0,0,0-.09-.368A1.01,1.01,0,0,0-142.9-27.115Z" transform="translate(154.905 38.204)" fill="#ffc107" stroke="#ba9c09" stroke-miterlimit="10" stroke-width="0.5"/>
        <path id="Path_1519" data-name="Path 1519" d="M-142.9-15.749h0a1.282,1.282,0,0,0-.782-.256h-10.115a1.284,1.284,0,0,0-.774.251.937.937,0,0,0-.337.465v8.561a.573.573,0,0,0,.072.282.98.98,0,0,0,.276.3,1.284,1.284,0,0,0,.764.245h10.115a1.29,1.29,0,0,0,.771-.249h0a.992.992,0,0,0,.27-.3.68.68,0,0,0,.083-.342V-15.1a.713.713,0,0,0-.09-.368A1.027,1.027,0,0,0-142.9-15.749Z" transform="translate(154.905 37.546)" fill="#ffc107" stroke="#ba9c09" stroke-miterlimit="10" stroke-width="0.5"/>
      </g>
      <g id="Group_1290" data-name="Group 1290" transform="translate(0.231 0.63)">
        <path id="Path_1530" data-name="Path 1530" d="M-142.633-60.707a1,1,0,0,0-.254-.281v0a1.285,1.285,0,0,0-.782-.256h-10.114a1.284,1.284,0,0,0-.774.252.922.922,0,0,0-.337.465v8.561a.576.576,0,0,0,.072.282,1,1,0,0,0,.274.3,1.284,1.284,0,0,0,.765.244h10.114a1.284,1.284,0,0,0,.771-.248h0a1,1,0,0,0,.27-.3.673.673,0,0,0,.083-.342V-60.34A.707.707,0,0,0-142.633-60.707Z" transform="translate(154.894 61.246)" fill="#9c27b0" stroke="#8117bf" stroke-miterlimit="10" stroke-width="0.5"/>
      </g>
      <path id="Path_1531" data-name="Path 1531" d="M-142.681-61.21a2.128,2.128,0,0,0-.254-.041l-1.594.188h0l1.594-.187a7.432,7.432,0,0,0-.781-.037H-153.83a7.634,7.634,0,0,0-.774.036,1.286,1.286,0,0,0-.337.067v1.22c0,.009.017.02.043.029v7.993a4.155,4.155,0,0,0,.043.639.787.787,0,0,0,.08.278h1.481c.017,0,.034-.019.049-.06a1.282,1.282,0,0,0,.053-.226,4.227,4.227,0,0,0,.042-.63v-5.319a2.9,2.9,0,0,1,3.138-2.585h6.3a7.585,7.585,0,0,0,.77-.035h0a2.242,2.242,0,0,0,.269-.042c.062-.015.083-.032.083-.049v-1.185C-142.591-61.176-142.613-61.194-142.681-61.21Zm-11.947,1.6-.049-.285h0l.049.285Z" transform="translate(155.118 61.287)" fill="#e8f8fc" opacity="0.62"/>
      <path id="Path_1532" data-name="Path 1532" d="M-155-16.039a1.257,1.257,0,0,0-.049.208l.228,1.313h0l-.228-1.313a4.2,4.2,0,0,0-.045.644v8.334a4.289,4.289,0,0,0,.043.638.782.782,0,0,0,.081.278h1.481c.016,0,.033-.019.048-.059a1.215,1.215,0,0,0,.053-.227,4.22,4.22,0,0,0,.042-.629v-8.334a4.284,4.284,0,0,0-.042-.635h0a1.324,1.324,0,0,0-.051-.222c-.018-.05-.039-.069-.059-.069h-1.439C-154.961-16.113-154.983-16.094-155-16.039Z" transform="translate(155.096 61.632)" fill="#e8f8fc" opacity="0.62"/>
      <path id="Path_1533" data-name="Path 1533" d="M-155-27.342a1.257,1.257,0,0,0-.049.208l.228,1.313h0l-.228-1.313a4.2,4.2,0,0,0-.045.644v8.334a4.289,4.289,0,0,0,.043.638.782.782,0,0,0,.081.278h1.481c.016,0,.033-.019.048-.059a1.215,1.215,0,0,0,.053-.227,4.22,4.22,0,0,0,.042-.629v-8.334a4.284,4.284,0,0,0-.042-.635h0a1.324,1.324,0,0,0-.051-.222c-.018-.05-.039-.069-.059-.069h-1.439C-154.961-27.416-154.983-27.4-155-27.342Z" transform="translate(155.096 62.285)" fill="#e8f8fc" opacity="0.62"/>
      <path id="Path_1534" data-name="Path 1534" d="M-155-38.342a1.257,1.257,0,0,0-.049.208l.228,1.313h0l-.228-1.313a4.2,4.2,0,0,0-.045.644v8.334a4.289,4.289,0,0,0,.043.638.782.782,0,0,0,.081.278h1.481c.016,0,.033-.019.048-.059a1.215,1.215,0,0,0,.053-.227,4.22,4.22,0,0,0,.042-.629v-8.334a4.284,4.284,0,0,0-.042-.635h0a1.324,1.324,0,0,0-.051-.222c-.018-.05-.039-.069-.059-.069h-1.439C-154.961-38.416-154.983-38.4-155-38.342Z" transform="translate(155.096 62.921)" fill="#e8f8fc" opacity="0.62"/>
    </g>
  </g>
  <g id="Group_1197" data-name="Group 1197" transform="translate(0 13.305)">
    <g id="Group_806" data-name="Group 806" transform="translate(0.31 0.18)">
      <g id="Group_805" data-name="Group 805">
        <g id="Group_802" data-name="Group 802">
          <path id="Path_1520" data-name="Path 1520" d="M-195.668-49.574a1.008,1.008,0,0,0-.253-.28v0a1.282,1.282,0,0,0-.782-.256h-10.115a1.284,1.284,0,0,0-.774.251.937.937,0,0,0-.337.465v8.561a.573.573,0,0,0,.072.282.98.98,0,0,0,.276.3,1.284,1.284,0,0,0,.764.245H-196.7a1.29,1.29,0,0,0,.771-.249h0a.992.992,0,0,0,.27-.3.68.68,0,0,0,.083-.342v-8.313A.713.713,0,0,0-195.668-49.574Z" transform="translate(207.929 50.112)" fill="#25addd"/>
          <path id="Path_1521" data-name="Path 1521" d="M-195.668-49.574a1.008,1.008,0,0,0-.253-.28v0a1.282,1.282,0,0,0-.782-.256h-10.115a1.284,1.284,0,0,0-.774.251.937.937,0,0,0-.337.465v8.561a.573.573,0,0,0,.072.282.98.98,0,0,0,.276.3,1.284,1.284,0,0,0,.764.245H-196.7a1.29,1.29,0,0,0,.771-.249h0a.992.992,0,0,0,.27-.3.68.68,0,0,0,.083-.342v-8.313A.713.713,0,0,0-195.668-49.574Z" transform="translate(207.929 50.112)" fill="none" stroke="#087caf" stroke-miterlimit="10" stroke-width="0.5"/>
        </g>
        <g id="Group_803" data-name="Group 803" transform="translate(0 10.83)">
          <path id="Path_1522" data-name="Path 1522" d="M-195.668-38.079a1.012,1.012,0,0,0-.253-.281v0a1.288,1.288,0,0,0-.782-.256h-10.115a1.284,1.284,0,0,0-.774.252.937.937,0,0,0-.337.465v8.561a.573.573,0,0,0,.072.282.991.991,0,0,0,.276.3,1.283,1.283,0,0,0,.764.244H-196.7a1.289,1.289,0,0,0,.771-.248h0a1,1,0,0,0,.27-.3.682.682,0,0,0,.083-.342v-8.313A.709.709,0,0,0-195.668-38.079Z" transform="translate(207.929 38.618)" fill="#25addd"/>
          <path id="Path_1523" data-name="Path 1523" d="M-195.668-38.079a1.012,1.012,0,0,0-.253-.281v0a1.288,1.288,0,0,0-.782-.256h-10.115a1.284,1.284,0,0,0-.774.252.937.937,0,0,0-.337.465v8.561a.573.573,0,0,0,.072.282.991.991,0,0,0,.276.3,1.283,1.283,0,0,0,.764.244H-196.7a1.289,1.289,0,0,0,.771-.248h0a1,1,0,0,0,.27-.3.682.682,0,0,0,.083-.342v-8.313A.709.709,0,0,0-195.668-38.079Z" transform="translate(207.929 38.618)" fill="none" stroke="#087caf" stroke-miterlimit="10" stroke-width="0.5"/>
        </g>
        <g id="Group_804" data-name="Group 804" transform="translate(13.145)">
          <path id="Path_1524" data-name="Path 1524" d="M-184.173-49.574a1,1,0,0,0-.254-.28v0a1.279,1.279,0,0,0-.782-.256h-10.114a1.284,1.284,0,0,0-.774.251.93.93,0,0,0-.337.465v8.561a.573.573,0,0,0,.072.282.99.99,0,0,0,.274.3,1.285,1.285,0,0,0,.765.245h10.114a1.284,1.284,0,0,0,.771-.249h0a.992.992,0,0,0,.27-.3.669.669,0,0,0,.083-.342v-8.313A.724.724,0,0,0-184.173-49.574Z" transform="translate(196.434 50.112)" fill="#25addd"/>
          <path id="Path_1525" data-name="Path 1525" d="M-184.173-49.574a1,1,0,0,0-.254-.28v0a1.279,1.279,0,0,0-.782-.256h-10.114a1.284,1.284,0,0,0-.774.251.93.93,0,0,0-.337.465v8.561a.573.573,0,0,0,.072.282.99.99,0,0,0,.274.3,1.285,1.285,0,0,0,.765.245h10.114a1.284,1.284,0,0,0,.771-.249h0a.992.992,0,0,0,.27-.3.669.669,0,0,0,.083-.342v-8.313A.724.724,0,0,0-184.173-49.574Z" transform="translate(196.434 50.112)" fill="none" stroke="#087caf" stroke-miterlimit="10" stroke-width="0.5"/>
        </g>
      </g>
    </g>
    <g id="Group_813" data-name="Group 813" transform="translate(0.31 21.658)">
      <g id="Group_812" data-name="Group 812">
        <g id="Group_808" data-name="Group 808">
          <path id="Path_1535" data-name="Path 1535" d="M-195.92-27.058l-.122.1h0l.125-.1a1.288,1.288,0,0,0-.782-.256h-10.115a1.284,1.284,0,0,0-.774.252.937.937,0,0,0-.337.465v8.561a.573.573,0,0,0,.072.282.991.991,0,0,0,.276.3,1.284,1.284,0,0,0,.764.245H-196.7a1.29,1.29,0,0,0,.771-.249h0a1.007,1.007,0,0,0,.27-.3.68.68,0,0,0,.083-.342v-8.313a.711.711,0,0,0-.09-.368A1.025,1.025,0,0,0-195.92-27.058Z" transform="translate(207.929 27.316)" fill="#a04aca"/>
          <path id="Path_1536" data-name="Path 1536" d="M-195.92-27.058l-.122.1h0l.125-.1a1.288,1.288,0,0,0-.782-.256h-10.115a1.284,1.284,0,0,0-.774.252.937.937,0,0,0-.337.465v8.561a.573.573,0,0,0,.072.282.991.991,0,0,0,.276.3,1.284,1.284,0,0,0,.764.245H-196.7a1.29,1.29,0,0,0,.771-.249h0a1.007,1.007,0,0,0,.27-.3.68.68,0,0,0,.083-.342v-8.313a.711.711,0,0,0-.09-.368A1.025,1.025,0,0,0-195.92-27.058Z" transform="translate(207.929 27.316)" fill="none" stroke="#8117bf" stroke-miterlimit="10" stroke-width="0.5"/>
        </g>
        <g id="Group_809" data-name="Group 809" transform="translate(13.206)">
          <path id="Path_1537" data-name="Path 1537" d="M-184.12-26.777a1,1,0,0,0-.254-.281v0a1.282,1.282,0,0,0-.781-.256h-10.115a1.284,1.284,0,0,0-.774.252.93.93,0,0,0-.337.465v8.561a.573.573,0,0,0,.072.282.991.991,0,0,0,.276.3,1.281,1.281,0,0,0,.764.245h10.115a1.283,1.283,0,0,0,.77-.249h0a1,1,0,0,0,.269-.3.671.671,0,0,0,.083-.342v-8.313A.71.71,0,0,0-184.12-26.777Z" transform="translate(196.381 27.316)" fill="#a04aca"/>
          <path id="Path_1538" data-name="Path 1538" d="M-184.12-26.777a1,1,0,0,0-.254-.281v0a1.282,1.282,0,0,0-.781-.256h-10.115a1.284,1.284,0,0,0-.774.252.93.93,0,0,0-.337.465v8.561a.573.573,0,0,0,.072.282.991.991,0,0,0,.276.3,1.281,1.281,0,0,0,.764.245h10.115a1.283,1.283,0,0,0,.77-.249h0a1,1,0,0,0,.269-.3.671.671,0,0,0,.083-.342v-8.313A.71.71,0,0,0-184.12-26.777Z" transform="translate(196.381 27.316)" fill="none" stroke="#8117bf" stroke-miterlimit="10" stroke-width="0.5"/>
        </g>
        <g id="Group_810" data-name="Group 810" transform="translate(26.351)">
          <path id="Path_1539" data-name="Path 1539" d="M-172.626-26.777a1,1,0,0,0-.253-.281v0a1.288,1.288,0,0,0-.782-.256h-10.114a1.288,1.288,0,0,0-.775.252.928.928,0,0,0-.336.465v8.561a.561.561,0,0,0,.072.282.972.972,0,0,0,.274.3,1.285,1.285,0,0,0,.765.245h10.114a1.287,1.287,0,0,0,.771-.249h0a.992.992,0,0,0,.27-.3.683.683,0,0,0,.083-.342v-8.313A.711.711,0,0,0-172.626-26.777Z" transform="translate(184.886 27.316)" fill="#a04aca"/>
          <path id="Path_1540" data-name="Path 1540" d="M-172.626-26.777a1,1,0,0,0-.253-.281v0a1.288,1.288,0,0,0-.782-.256h-10.114a1.288,1.288,0,0,0-.775.252.928.928,0,0,0-.336.465v8.561a.561.561,0,0,0,.072.282.972.972,0,0,0,.274.3,1.285,1.285,0,0,0,.765.245h10.114a1.287,1.287,0,0,0,.771-.249h0a.992.992,0,0,0,.27-.3.683.683,0,0,0,.083-.342v-8.313A.711.711,0,0,0-172.626-26.777Z" transform="translate(184.886 27.316)" fill="none" stroke="#8117bf" stroke-miterlimit="10" stroke-width="0.5"/>
        </g>
        <g id="Group_811" data-name="Group 811" transform="translate(0 10.66)">
          <path id="Path_1541" data-name="Path 1541" d="M-195.668-15.463a1.012,1.012,0,0,0-.253-.281v0A1.288,1.288,0,0,0-196.7-16h-10.115a1.284,1.284,0,0,0-.774.252.929.929,0,0,0-.337.465v8.561a.57.57,0,0,0,.072.281.984.984,0,0,0,.276.305,1.29,1.29,0,0,0,.764.244H-196.7a1.283,1.283,0,0,0,.771-.249v0a1.015,1.015,0,0,0,.27-.3.685.685,0,0,0,.083-.342V-15.1A.708.708,0,0,0-195.668-15.463Z" transform="translate(207.929 16.002)" fill="#a04aca"/>
          <path id="Path_1542" data-name="Path 1542" d="M-195.668-15.463a1.012,1.012,0,0,0-.253-.281v0A1.288,1.288,0,0,0-196.7-16h-10.115a1.284,1.284,0,0,0-.774.252.929.929,0,0,0-.337.465v8.561a.57.57,0,0,0,.072.281.984.984,0,0,0,.276.305,1.29,1.29,0,0,0,.764.244H-196.7a1.283,1.283,0,0,0,.771-.249v0a1.015,1.015,0,0,0,.27-.3.685.685,0,0,0,.083-.342V-15.1A.708.708,0,0,0-195.668-15.463Z" transform="translate(207.929 16.002)" fill="none" stroke="#8117bf" stroke-miterlimit="10" stroke-width="0.5"/>
        </g>
      </g>
    </g>
    <path id="Path_1543" data-name="Path 1543" d="M-184.381-50.227a2.174,2.174,0,0,0-.253-.04l-1.594.187h0l1.594-.187a7.47,7.47,0,0,0-.782-.037H-195.53a7.634,7.634,0,0,0-.774.036,1.351,1.351,0,0,0-.337.066v1.22c0,.014.023.028.072.041a2.078,2.078,0,0,0,.276.043,7.512,7.512,0,0,0,.764.035h10.115a7.328,7.328,0,0,0,.771-.036h0a2.031,2.031,0,0,0,.27-.043c.061-.015.083-.032.083-.048v-1.185C-184.29-50.192-184.313-50.21-184.381-50.227Z" transform="translate(209.859 50.303)" fill="#e8f8fc" opacity="0.62"/>
    <path id="Path_1544" data-name="Path 1544" d="M-208.069-38.645a1.267,1.267,0,0,0-.048.208l.226,1.313h0l-.228-1.313a4.212,4.212,0,0,0-.043.644v8.334a4.137,4.137,0,0,0,.043.638.764.764,0,0,0,.08.278h1.481c.017,0,.033-.019.049-.059a1.315,1.315,0,0,0,.053-.227,4.384,4.384,0,0,0,.042-.629v-8.334a4.269,4.269,0,0,0-.043-.635h0a1.22,1.22,0,0,0-.051-.222c-.018-.05-.039-.069-.059-.069h-1.437C-208.027-38.719-208.05-38.7-208.069-38.645Z" transform="translate(208.205 49.633)" fill="#e8f8fc" opacity="0.62"/>
    <path id="Path_1545" data-name="Path 1545" d="M-208.069-16.039a1.267,1.267,0,0,0-.048.208l.226,1.313h0l-.228-1.313a4.212,4.212,0,0,0-.043.644v8.334a4.137,4.137,0,0,0,.043.638.764.764,0,0,0,.08.278h1.481c.017,0,.033-.019.049-.059a1.315,1.315,0,0,0,.053-.227,4.384,4.384,0,0,0,.042-.629v-8.334a4.269,4.269,0,0,0-.043-.635h0a1.22,1.22,0,0,0-.051-.222c-.018-.05-.039-.069-.059-.069h-1.437C-208.027-16.113-208.05-16.094-208.069-16.039Z" transform="translate(208.205 48.327)" fill="#e8f8fc" opacity="0.62"/>
    <path id="Path_1546" data-name="Path 1546" d="M-195.939-50.227a2.159,2.159,0,0,0-.254-.04l-1.594.187h0l1.594-.187a7.455,7.455,0,0,0-.782-.037h-10.114a7.634,7.634,0,0,0-.774.036,1.339,1.339,0,0,0-.337.066v1.22c0,.01.017.021.043.03v7.993a4.137,4.137,0,0,0,.043.638.757.757,0,0,0,.08.278h1.481c.017,0,.033-.019.049-.059a1.321,1.321,0,0,0,.053-.226,4.386,4.386,0,0,0,.042-.63v-5.319a2.9,2.9,0,0,1,3.138-2.585h6.3a7.3,7.3,0,0,0,.771-.036h0a2.031,2.031,0,0,0,.27-.043c.062-.015.083-.032.083-.048v-1.185C-195.849-50.192-195.871-50.21-195.939-50.227Zm-11.947,1.6-.049-.285h0l.049.285Z" transform="translate(208.2 50.303)" fill="#e8f8fc" opacity="0.62"/>
    <path id="Path_1547" data-name="Path 1547" d="M-195.939-27.227a2.16,2.16,0,0,0-.254-.04l-1.594.188h0l1.594-.187a7.455,7.455,0,0,0-.782-.037h-10.114a7.632,7.632,0,0,0-.774.036,1.339,1.339,0,0,0-.337.066v1.22c0,.01.017.021.043.03v7.993a4.137,4.137,0,0,0,.043.638.757.757,0,0,0,.08.278h1.481c.017,0,.033-.019.049-.059a1.321,1.321,0,0,0,.053-.226,4.386,4.386,0,0,0,.042-.63v-5.319a2.9,2.9,0,0,1,3.138-2.585h6.3a7.3,7.3,0,0,0,.771-.036h0a2.031,2.031,0,0,0,.27-.043c.062-.015.083-.032.083-.048v-1.185C-195.849-27.192-195.871-27.21-195.939-27.227Zm-11.947,1.6-.049-.285h0l.049.285Z" transform="translate(208.2 48.973)" fill="#e8f8fc" opacity="0.62"/>
    <path id="Path_1548" data-name="Path 1548" d="M-184.1-27.269a2.129,2.129,0,0,0-.254-.041l-1.594.187h0l1.594-.187a7.453,7.453,0,0,0-.782-.037h-10.114a7.633,7.633,0,0,0-.774.036,1.286,1.286,0,0,0-.337.067v1.22c0,.013.023.027.072.04a2.087,2.087,0,0,0,.274.043,7.519,7.519,0,0,0,.765.035h10.114a7.591,7.591,0,0,0,.771-.035h0a2.228,2.228,0,0,0,.27-.042c.062-.015.083-.032.083-.049v-1.185C-184.014-27.235-184.036-27.253-184.1-27.269Z" transform="translate(209.899 48.976)" fill="#e8f8fc" opacity="0.62"/>
    <path id="Path_1549" data-name="Path 1549" d="M-172.8-27.269a2.129,2.129,0,0,0-.254-.041l-1.594.187h0l1.594-.187a7.453,7.453,0,0,0-.782-.037H-183.95a7.633,7.633,0,0,0-.774.036,1.286,1.286,0,0,0-.337.067v1.22c0,.013.023.027.072.04a2.087,2.087,0,0,0,.274.043,7.518,7.518,0,0,0,.765.035h10.114a7.591,7.591,0,0,0,.771-.035h0a2.227,2.227,0,0,0,.27-.042c.062-.015.084-.032.084-.049v-1.185C-172.711-27.235-172.734-27.253-172.8-27.269Z" transform="translate(211.522 48.976)" fill="#e8f8fc" opacity="0.62"/>
  </g>
  <g id="Group_1196" data-name="Group 1196" transform="translate(46.248 13.365)">
    <g id="Group_807" data-name="Group 807" transform="translate(0.341 0.204)">
      <path id="Path_1526" data-name="Path 1526" d="M-157.709-49.483a1,1,0,0,0-.254-.281v0a1.285,1.285,0,0,0-.782-.256h-10.114a1.284,1.284,0,0,0-.774.252.922.922,0,0,0-.337.465v8.561a.576.576,0,0,0,.072.282,1,1,0,0,0,.274.3,1.284,1.284,0,0,0,.765.244h10.114a1.284,1.284,0,0,0,.771-.248h0a1,1,0,0,0,.27-.3.673.673,0,0,0,.083-.342v-8.314A.707.707,0,0,0-157.709-49.483Z" transform="translate(169.97 50.022)" fill="#db372a" stroke="#c2000f" stroke-miterlimit="10" stroke-width="0.5"/>
      <path id="Path_1527" data-name="Path 1527" d="M-157.963-38.355v0a1.285,1.285,0,0,0-.782-.255h-10.114a1.284,1.284,0,0,0-.774.251.93.93,0,0,0-.337.465v8.561a.573.573,0,0,0,.072.282.991.991,0,0,0,.274.3,1.285,1.285,0,0,0,.765.245h10.114a1.285,1.285,0,0,0,.771-.249h0a.992.992,0,0,0,.27-.3.669.669,0,0,0,.083-.342v-8.313a.712.712,0,0,0-.089-.368A1.012,1.012,0,0,0-157.963-38.355Z" transform="translate(169.97 49.362)" fill="#db372a" stroke="#c2000f" stroke-miterlimit="10" stroke-width="0.5"/>
      <path id="Path_1528" data-name="Path 1528" d="M-157.963-26.945v0a1.279,1.279,0,0,0-.782-.256h-10.114a1.284,1.284,0,0,0-.774.252.922.922,0,0,0-.337.465v8.561a.57.57,0,0,0,.072.281.994.994,0,0,0,.274.305,1.291,1.291,0,0,0,.765.244h10.114a1.278,1.278,0,0,0,.771-.249v0a1.015,1.015,0,0,0,.27-.3.673.673,0,0,0,.083-.342V-26.3a.707.707,0,0,0-.089-.367A1,1,0,0,0-157.963-26.945Z" transform="translate(169.97 48.703)" fill="#db372a" stroke="#c2000f" stroke-miterlimit="10" stroke-width="0.5"/>
      <path id="Path_1529" data-name="Path 1529" d="M-157.963-15.536v0a1.285,1.285,0,0,0-.782-.256h-10.114a1.284,1.284,0,0,0-.774.252.93.93,0,0,0-.337.465v8.561a.573.573,0,0,0,.072.282,1,1,0,0,0,.274.3,1.285,1.285,0,0,0,.765.245h10.114a1.285,1.285,0,0,0,.771-.249h0a.992.992,0,0,0,.27-.3.671.671,0,0,0,.083-.342v-8.313a.71.71,0,0,0-.089-.368A1,1,0,0,0-157.963-15.536Z" transform="translate(169.97 48.043)" fill="#db372a" stroke="#c2000f" stroke-miterlimit="10" stroke-width="0.5"/>
    </g>
    <g id="Group_814" data-name="Group 814">
      <path id="Path_1555" data-name="Path 1555" d="M-170.137-38.581a1.245,1.245,0,0,0-.048.208l.226,1.313h0l-.228-1.313a4.214,4.214,0,0,0-.043.644V-29.4a4.153,4.153,0,0,0,.043.639.763.763,0,0,0,.08.278h1.481c.017,0,.033-.019.049-.06a1.279,1.279,0,0,0,.053-.226,4.225,4.225,0,0,0,.042-.63v-8.333a4.269,4.269,0,0,0-.043-.635h0a1.2,1.2,0,0,0-.051-.222c-.018-.05-.039-.069-.059-.069h-1.437C-170.1-38.655-170.118-38.636-170.137-38.581Z" transform="translate(170.273 49.569)" fill="#e8f8fc" opacity="0.62"/>
      <path id="Path_1556" data-name="Path 1556" d="M-170.137-27.087a1.259,1.259,0,0,0-.048.209l.226,1.313h0l-.228-1.313a4.206,4.206,0,0,0-.043.644V-17.9a4.139,4.139,0,0,0,.043.638.757.757,0,0,0,.08.278h1.481c.017,0,.033-.019.049-.059a1.321,1.321,0,0,0,.053-.226,4.225,4.225,0,0,0,.042-.63v-8.333a4.25,4.25,0,0,0-.043-.635h0a1.2,1.2,0,0,0-.051-.222c-.018-.051-.039-.069-.059-.069h-1.437C-170.1-27.16-170.118-27.141-170.137-27.087Z" transform="translate(170.273 48.905)" fill="#e8f8fc" opacity="0.62"/>
      <path id="Path_1557" data-name="Path 1557" d="M-170.137-15.975a1.245,1.245,0,0,0-.048.208l.226,1.313h0l-.228-1.313a4.214,4.214,0,0,0-.043.644v8.333a4.153,4.153,0,0,0,.043.639.763.763,0,0,0,.08.278h1.481c.017,0,.033-.019.049-.06a1.279,1.279,0,0,0,.053-.226,4.225,4.225,0,0,0,.042-.63v-8.333a4.269,4.269,0,0,0-.043-.635h0a1.2,1.2,0,0,0-.051-.222c-.018-.05-.039-.069-.059-.069h-1.437C-170.1-16.049-170.118-16.03-170.137-15.975Z" transform="translate(170.273 48.263)" fill="#e8f8fc" opacity="0.62"/>
      <path id="Path_1558" data-name="Path 1558" d="M-158.007-50.163a2.156,2.156,0,0,0-.254-.04l-1.594.187h0l1.594-.187a7.446,7.446,0,0,0-.781-.037h-10.115a7.367,7.367,0,0,0-.774.036,1.3,1.3,0,0,0-.337.066v1.22c0,.01.017.021.043.03v7.993a4.141,4.141,0,0,0,.043.638.758.758,0,0,0,.08.278h1.481c.017,0,.033-.019.049-.059a1.321,1.321,0,0,0,.053-.226,4.223,4.223,0,0,0,.042-.63v-5.319a2.9,2.9,0,0,1,3.138-2.585h6.3a7.553,7.553,0,0,0,.77-.036h0a2.033,2.033,0,0,0,.27-.043c.062-.015.083-.032.083-.048V-50.11C-157.917-50.128-157.939-50.147-158.007-50.163Zm-11.947,1.6-.049-.285h0l.049.285Z" transform="translate(170.268 50.239)" fill="#e8f8fc" opacity="0.62"/>
    </g>
  </g>
  <g id="Group_1208" data-name="Group 1208" transform="translate(86.259 11.828)">
    <path id="Path_2571" data-name="Path 2571" d="M-136.273-41.057a19.393,19.393,0,0,1,8.09-6.793c.251-.117.5-.228.76-.337v-.926a.756.756,0,0,0-.088-.373c-.376.12-.747.249-1.113.385l0,0q-.833.313-1.623.681a19.4,19.4,0,0,0-8.09,6.793c-.223.341-.428.689-.623,1.043s-.38.713-.547,1.079a1.4,1.4,0,0,0,.3.038h2.019c.094-.185.189-.367.29-.548C-136.7-40.368-136.5-40.717-136.273-41.057Z" transform="translate(139.981 49.983)" fill="#f9f9f9" opacity="0.62"/>
    <path id="Path_2572" data-name="Path 2572" d="M-136.273-41.057a19.393,19.393,0,0,1,8.09-6.793c.251-.117.5-.228.76-.337v-.926a.756.756,0,0,0-.088-.373c-.376.12-.747.249-1.113.385l0,0q-.833.313-1.623.681a19.4,19.4,0,0,0-8.09,6.793c-.223.341-.428.689-.623,1.043s-.38.713-.547,1.079a1.4,1.4,0,0,0,.3.038h2.019c.094-.185.189-.367.29-.548C-136.7-40.368-136.5-40.717-136.273-41.057Z" transform="translate(139.981 49.983)" fill="#f9f9f9" opacity="0.62"/>
    <path id="Path_2573" data-name="Path 2573" d="M-136.273-41.057a19.393,19.393,0,0,1,8.09-6.793c.251-.117.5-.228.76-.337v-.926a.756.756,0,0,0-.088-.373c-.376.12-.747.249-1.113.385l0,0q-.833.313-1.623.681a19.4,19.4,0,0,0-8.09,6.793c-.223.341-.428.689-.623,1.043s-.38.713-.547,1.079a1.4,1.4,0,0,0,.3.038h2.019c.094-.185.189-.367.29-.548C-136.7-40.368-136.5-40.717-136.273-41.057Z" transform="translate(139.981 49.983)" fill="#f9f9f9" opacity="0.62"/>
    <path id="Path_2574" data-name="Path 2574" d="M-115.479-49.909a2.263,2.263,0,0,0-.266-.041l-1.671.2h0l1.671-.2a7.816,7.816,0,0,0-.82-.039h-10.6a7.722,7.722,0,0,0-.812.038,1.359,1.359,0,0,0-.354.069V-48.6c0,.015.024.03.076.042a2.189,2.189,0,0,0,.288.045,7.882,7.882,0,0,0,.8.037h10.6a7.649,7.649,0,0,0,.808-.038h0a2.129,2.129,0,0,0,.283-.045c.065-.016.088-.034.088-.05v-1.243C-115.386-49.872-115.41-49.891-115.479-49.909Z" transform="translate(142.204 49.989)" fill="#e8f8fc" opacity="0.62"/>
    <path id="Path_2575" data-name="Path 2575" d="M-136.081-40.866a19.391,19.391,0,0,1,8.09-6.792q.376-.175.76-.337v-.927a.754.754,0,0,0-.088-.372q-.565.179-1.113.385l0,0q-.831.311-1.622.681a19.393,19.393,0,0,0-8.09,6.793c-.224.34-.429.689-.625,1.043s-.379.712-.545,1.079a1.384,1.384,0,0,0,.3.037H-137q.14-.276.291-.548C-136.509-40.177-136.3-40.525-136.081-40.866Z" transform="translate(140.019 49.981)" fill="#f9f9f9" opacity="0.62"/>
    <path id="Path_2576" data-name="Path 2576" d="M-139.672-38.641a1.32,1.32,0,0,0-.052.218l.239,1.377h0l-.239-1.377a4.4,4.4,0,0,0-.047.676v8.737a4.493,4.493,0,0,0,.046.669.82.82,0,0,0,.085.291h1.553c.017,0,.035-.02.05-.062a1.184,1.184,0,0,0,.055-.238,4.427,4.427,0,0,0,.044-.66v-8.737a4.494,4.494,0,0,0-.044-.666h0a1.389,1.389,0,0,0-.054-.233c-.019-.052-.041-.072-.062-.072h-1.508C-139.629-38.719-139.651-38.7-139.672-38.641Z" transform="translate(139.929 49.851)" fill="#e8f8fc" opacity="0.62"/>
    <path id="Path_2577" data-name="Path 2577" d="M-139.672-16.035a1.32,1.32,0,0,0-.052.218l.239,1.377h0l-.239-1.377a4.4,4.4,0,0,0-.047.676V-6.4a4.492,4.492,0,0,0,.046.669.82.82,0,0,0,.085.291h1.553c.017,0,.035-.02.05-.062a1.184,1.184,0,0,0,.055-.238,4.427,4.427,0,0,0,.044-.66v-8.737a4.494,4.494,0,0,0-.044-.666h0a1.389,1.389,0,0,0-.054-.233c-.019-.052-.041-.072-.062-.072h-1.508C-139.629-16.113-139.651-16.093-139.672-16.035Z" transform="translate(139.929 49.575)" fill="#e8f8fc" opacity="0.62"/>
    <path id="Path_2578" data-name="Path 2578" d="M-139.672-27.338a1.32,1.32,0,0,0-.052.218l.239,1.377h0l-.239-1.377a4.4,4.4,0,0,0-.047.676v8.737a4.493,4.493,0,0,0,.046.669.82.82,0,0,0,.085.291h1.553c.017,0,.035-.02.05-.062a1.184,1.184,0,0,0,.055-.238,4.427,4.427,0,0,0,.044-.66v-8.737a4.494,4.494,0,0,0-.044-.666h0a1.389,1.389,0,0,0-.054-.233c-.019-.052-.041-.072-.062-.072h-1.508C-139.629-27.416-139.651-27.4-139.672-27.338Z" transform="translate(139.929 49.713)" fill="#e8f8fc" opacity="0.62"/>
    <path id="Path_2579" data-name="Path 2579" d="M-129.4-27.042a1.1,1.1,0,0,1,.207.216A1.1,1.1,0,0,0-129.4-27.042Z" transform="translate(141.992 49.709)" fill="none"/>
    <path id="Path_2580" data-name="Path 2580" d="M-129.181-26.744h0c.007.014.013.028.019.041C-129.168-26.716-129.174-26.73-129.181-26.744Z" transform="translate(142.036 49.705)" fill="none"/>
    <path id="Path_2581" data-name="Path 2581" d="M-129.164-17.194a.5.5,0,0,0,.043-.122.566.566,0,0,1-.052.134Z" transform="translate(142.038 49.59)" fill="none"/>
    <path id="Path_2582" data-name="Path 2582" d="M-127.314-15.733a1.35,1.35,0,0,0-.82-.269h-10.6a1.35,1.35,0,0,0-.813.264.965.965,0,0,0-.352.488v8.975a.585.585,0,0,0,.076.294,1.042,1.042,0,0,0,.288.32,1.353,1.353,0,0,0,.8.256h10.6a1.34,1.34,0,0,0,.808-.261v0a1.064,1.064,0,0,0,.283-.313.718.718,0,0,0,.088-.359v-8.716a.742.742,0,0,0-.095-.385,1.042,1.042,0,0,0-.265-.294" transform="translate(139.903 49.574)" fill="#23dd05" stroke="#00c000" stroke-miterlimit="10" stroke-width="0.5"/>
    <path id="Path_2583" data-name="Path 2583" d="M-105.2-40.462l0,0c-.191-.346-.392-.687-.609-1.019a19.392,19.392,0,0,0-8.1-6.8q-.784-.366-1.609-.676l-1.133-.393a.944.944,0,0,0-.078.175v8.975a.6.6,0,0,0,.076.3,1.039,1.039,0,0,0,.289.319,1.349,1.349,0,0,0,.8.256h10.6a1.428,1.428,0,0,0,.309-.038C-104.816-39.745-105-40.106-105.2-40.462Z" transform="translate(144.513 49.981)" fill="#23dd05" stroke="#00c000" stroke-miterlimit="10" stroke-width="0.5"/>
    <path id="Path_2584" data-name="Path 2584" d="M-115.442-49.293a1.047,1.047,0,0,0-.266-.294v0a1.344,1.344,0,0,0-.819-.269h-10.6a1.346,1.346,0,0,0-.812.264.975.975,0,0,0-.354.488v8.975a.6.6,0,0,0,.076.3,1.039,1.039,0,0,0,.289.319,1.343,1.343,0,0,0,.8.257h10.6a1.346,1.346,0,0,0,.807-.261h0a1.064,1.064,0,0,0,.282-.313.7.7,0,0,0,.088-.359v-8.715A.742.742,0,0,0-115.442-49.293Z" transform="translate(142.212 49.987)" fill="#23dd05" stroke="#00c000" stroke-miterlimit="10" stroke-width="0.5"/>
    <path id="Path_2585" data-name="Path 2585" d="M-115.1-49.776a2.264,2.264,0,0,0-.266-.041l-1.671.2h0l1.671-.2a7.809,7.809,0,0,0-.819-.039h-10.6a8,8,0,0,0-.812.038,1.4,1.4,0,0,0-.354.069v1.279c0,.015.024.03.076.042a2.188,2.188,0,0,0,.288.045,7.9,7.9,0,0,0,.8.037h10.6a7.64,7.64,0,0,0,.807-.038h0a2.14,2.14,0,0,0,.282-.045c.065-.016.088-.033.088-.05v-1.243C-115-49.739-115.026-49.758-115.1-49.776Z" transform="translate(142.28 49.987)" fill="#e8f8fc" opacity="0.62"/>
    <path id="Path_2586" data-name="Path 2586" d="M-115.563-27.528a1.346,1.346,0,0,0-.812.263.975.975,0,0,0-.354.488V-17.8a.6.6,0,0,0,.076.3,1.028,1.028,0,0,0,.289.319l.014.01a22.741,22.741,0,0,0,3.278-1.383,19.146,19.146,0,0,0,7.262-6.393,15.866,15.866,0,0,0,.983-1.738l0,0q.18-.37.34-.749a1.377,1.377,0,0,0-.475-.084Z" transform="translate(144.513 49.715)" fill="#23dd05" stroke="#00c000" stroke-miterlimit="10" stroke-width="0.5"/>
    <path id="Path_2587" data-name="Path 2587" d="M-104.246-38.28v0l-.083-.207a1.372,1.372,0,0,0-.628-.15h-10.6a1.346,1.346,0,0,0-.812.264.967.967,0,0,0-.354.488v8.975a.6.6,0,0,0,.076.294,1.031,1.031,0,0,0,.289.32,1.349,1.349,0,0,0,.8.256h10.6a1.351,1.351,0,0,0,.747-.222c.019-.013.042-.024.061-.038h0a1.068,1.068,0,0,0,.283-.313.717.717,0,0,0,.086-.359V-36.79A14.624,14.624,0,0,0-104.246-38.28Z" transform="translate(144.513 49.85)" fill="#23dd05" stroke="#00c000" stroke-miterlimit="10" stroke-width="0.5"/>
    <path id="Path_2588" data-name="Path 2588" d="M-115.75-27.26a1.35,1.35,0,0,0-.82-.268h-10.6a1.349,1.349,0,0,0-.813.263.982.982,0,0,0-.354.488V-17.8a.59.59,0,0,0,.077.3,1.009,1.009,0,0,0,.288.319,1.347,1.347,0,0,0,.8.257h10.6a1.352,1.352,0,0,0,.808-.261h0a1.04,1.04,0,0,0,.283-.313.713.713,0,0,0,.088-.359v-8.715a.748.748,0,0,0-.095-.386,1.057,1.057,0,0,0-.265-.294" transform="translate(142.203 49.715)" fill="#23dd05" stroke="#00c000" stroke-miterlimit="10" stroke-width="0.5"/>
    <path id="Path_2589" data-name="Path 2589" d="M-115.1-27.776a2.262,2.262,0,0,0-.266-.041l-1.671.2h0l1.671-.2a7.807,7.807,0,0,0-.819-.039h-10.6a8,8,0,0,0-.812.038,1.4,1.4,0,0,0-.354.069v1.279c0,.015.024.03.076.042a2.188,2.188,0,0,0,.288.045,7.9,7.9,0,0,0,.8.037h10.6a7.641,7.641,0,0,0,.807-.038h0a2.14,2.14,0,0,0,.282-.045c.065-.016.088-.033.088-.05v-1.243C-115-27.739-115.026-27.758-115.1-27.776Z" transform="translate(142.28 49.719)" fill="#e8f8fc" opacity="0.62"/>
    <g id="Group_1207" data-name="Group 1207" transform="translate(0 0.129)">
      <path id="Path_2590" data-name="Path 2590" d="M-117.422-25.883l1.671-1.377a1.35,1.35,0,0,0-.82-.268h-10.6a1.349,1.349,0,0,0-.813.263.982.982,0,0,0-.354.488V-17.8a.59.59,0,0,0,.077.3,1.009,1.009,0,0,0,.288.319,1.347,1.347,0,0,0,.8.257h10.6a1.352,1.352,0,0,0,.808-.261h0a1.04,1.04,0,0,0,.283-.313.713.713,0,0,0,.088-.359v-8.715a.748.748,0,0,0-.095-.386,1.057,1.057,0,0,0-.265-.294" transform="translate(142.203 49.585)" fill="none"/>
      <path id="Path_2591" data-name="Path 2591" d="M-115.708-49.587l-1.671,1.377v0l1.671-1.377a1.344,1.344,0,0,0-.819-.269h-10.6a1.346,1.346,0,0,0-.812.264.975.975,0,0,0-.354.488v8.975a.6.6,0,0,0,.076.3,1.039,1.039,0,0,0,.289.319,1.343,1.343,0,0,0,.8.257h10.6a1.346,1.346,0,0,0,.807-.261h0a1.052,1.052,0,0,0,.282-.313.7.7,0,0,0,.088-.359v-8.715a.742.742,0,0,0-.094-.386A1.047,1.047,0,0,0-115.708-49.587Z" transform="translate(142.212 49.858)" fill="none"/>
      <path id="Path_2592" data-name="Path 2592" d="M-127.314-38.358l-1.671,1.377v0l1.671-1.377a1.344,1.344,0,0,0-.82-.269h-10.6a1.386,1.386,0,0,0-.627.148,1.328,1.328,0,0,0-.186.115.973.973,0,0,0-.352.488V-28.9a.587.587,0,0,0,.076.294,1.053,1.053,0,0,0,.288.32c.022.015.046.027.067.041a1.353,1.353,0,0,0,.735.214h10.6a1.347,1.347,0,0,0,.808-.261h0a1.04,1.04,0,0,0,.283-.313.712.712,0,0,0,.088-.358v-8.716a.748.748,0,0,0-.095-.386A1.039,1.039,0,0,0-127.314-38.358Z" transform="translate(139.903 49.721)" fill="none"/>
      <path id="Path_2593" data-name="Path 2593" d="M-128.3-48.973l0,0q-.831.311-1.622.681a19.393,19.393,0,0,0-8.09,6.793c-.223.34-.429.689-.625,1.043s-.379.712-.546,1.079a1.384,1.384,0,0,0,.3.037h10.6a1.346,1.346,0,0,0,.808-.26h0a1.052,1.052,0,0,0,.283-.313.718.718,0,0,0,.088-.359v-8.715a.756.756,0,0,0-.088-.373Q-127.75-49.179-128.3-48.973Z" transform="translate(140.046 49.852)" fill="none"/>
      <path id="Path_2594" data-name="Path 2594" d="M-105.2-40.462l0,0c-.191-.346-.392-.687-.609-1.019a19.392,19.392,0,0,0-8.1-6.8q-.784-.366-1.609-.676l-1.133-.393a.944.944,0,0,0-.078.175v8.975a.6.6,0,0,0,.076.3,1.039,1.039,0,0,0,.289.319,1.349,1.349,0,0,0,.8.256h10.6a1.428,1.428,0,0,0,.309-.038C-104.816-39.745-105-40.106-105.2-40.462Z" transform="translate(144.513 49.852)" fill="none"/>
      <path id="Path_2595" data-name="Path 2595" d="M-104.33-38.49a1.372,1.372,0,0,0-.628-.15h-10.6a1.346,1.346,0,0,0-.812.264.967.967,0,0,0-.354.488v8.975a.6.6,0,0,0,.076.3,1.039,1.039,0,0,0,.289.319,1.349,1.349,0,0,0,.8.256h10.6a1.351,1.351,0,0,0,.747-.222c.019-.013.042-.024.061-.038h0a1.085,1.085,0,0,0,.283-.313.717.717,0,0,0,.086-.359v-6.906a6.272,6.272,0,0,0-.337-2.041c-.042-.121-.085-.241-.129-.361v0" transform="translate(144.513 49.721)" fill="none"/>
      <path id="Path_2596" data-name="Path 2596" d="M-115.563-27.528a1.346,1.346,0,0,0-.812.263.975.975,0,0,0-.354.488V-17.8a.6.6,0,0,0,.076.3,1.028,1.028,0,0,0,.289.319l.014.01a22.741,22.741,0,0,0,3.278-1.383,19.146,19.146,0,0,0,7.262-6.393,15.866,15.866,0,0,0,.983-1.738l0,0q.18-.37.34-.749a1.377,1.377,0,0,0-.475-.084Z" transform="translate(144.513 49.585)" fill="none"/>
    </g>
    <path id="Path_2597" data-name="Path 2597" d="M-128.3-48.973l0,0q-.831.311-1.622.681a19.393,19.393,0,0,0-8.09,6.793c-.223.34-.429.689-.625,1.043s-.379.712-.546,1.079a1.384,1.384,0,0,0,.3.037h10.6a1.346,1.346,0,0,0,.808-.26h0a1.052,1.052,0,0,0,.283-.313.718.718,0,0,0,.088-.359v-8.715a.756.756,0,0,0-.088-.373Q-127.75-49.179-128.3-48.973Z" transform="translate(140.046 49.981)" fill="#23dd05" stroke="#00c000" stroke-miterlimit="10" stroke-width="0.5"/>
    <path id="Path_2598" data-name="Path 2598" d="M-135.89-41.249a19.4,19.4,0,0,1,8.091-6.792c.249-.118.5-.229.76-.337V-49.3a.756.756,0,0,0-.089-.372q-.565.179-1.111.385h0q-.831.313-1.623.682a19.386,19.386,0,0,0-8.09,6.793c-.223.34-.428.689-.623,1.042s-.379.713-.546,1.08a1.382,1.382,0,0,0,.3.037h2.019q.14-.276.29-.548C-136.318-40.56-136.113-40.908-135.89-41.249Z" transform="translate(140.058 49.985)" fill="#f9f9f9" opacity="0.62"/>
    <path id="Path_2599" data-name="Path 2599" d="M-127.05-38.065a1.039,1.039,0,0,0-.265-.293v0a1.344,1.344,0,0,0-.82-.269h-10.6a1.386,1.386,0,0,0-.627.148,1.328,1.328,0,0,0-.186.115.973.973,0,0,0-.352.488V-28.9a.587.587,0,0,0,.076.294,1.053,1.053,0,0,0,.288.32c.022.015.046.027.067.041a1.353,1.353,0,0,0,.735.214h10.6a1.347,1.347,0,0,0,.808-.261h0a1.04,1.04,0,0,0,.283-.313.712.712,0,0,0,.088-.358v-8.716A.748.748,0,0,0-127.05-38.065Z" transform="translate(139.903 49.85)" fill="#23dd05" stroke="#00c000" stroke-miterlimit="10" stroke-width="0.5"/>
    <path id="Path_2600" data-name="Path 2600" d="M-127.314-27.047a1.35,1.35,0,0,0-.82-.269h-10.6a1.377,1.377,0,0,0-.393.059,1.293,1.293,0,0,0-.392.189c-.008.006-.019.01-.028.016a.973.973,0,0,0-.352.488v8.975a.588.588,0,0,0,.076.3,1.05,1.05,0,0,0,.288.319,1.347,1.347,0,0,0,.8.257h10.6a1.347,1.347,0,0,0,.808-.261h0l.011-.009a1.215,1.215,0,0,0,.146-.133.946.946,0,0,0,.131-.183.565.565,0,0,0,.052-.134c0-.011.01-.022.012-.033a.826.826,0,0,0,.019-.18v-8.715a.938.938,0,0,0-.018-.183l0-.016c0-.019-.012-.038-.018-.057s-.006-.026-.011-.039-.017-.034-.025-.05-.012-.028-.019-.041-.04-.052-.059-.078a1.1,1.1,0,0,0-.207-.216" transform="translate(139.903 49.712)" fill="#23dd05" stroke="#00c000" stroke-miterlimit="10" stroke-width="0.5"/>
    <path id="Path_2601" data-name="Path 2601" d="M-130.8-25.648" transform="translate(141.714 49.692)" fill="#23dd05" stroke="#00c000" stroke-miterlimit="10" stroke-width="0.5"/>
    <path id="Path_2602" data-name="Path 2602" d="M-139.672-38.641a1.32,1.32,0,0,0-.052.218l.239,1.377h0l-.239-1.377a4.4,4.4,0,0,0-.047.676v8.737a4.493,4.493,0,0,0,.046.669.82.82,0,0,0,.085.291h1.553c.017,0,.035-.02.05-.062a1.184,1.184,0,0,0,.055-.238,4.427,4.427,0,0,0,.044-.66v-8.737a4.494,4.494,0,0,0-.044-.666h0a1.389,1.389,0,0,0-.054-.233c-.019-.052-.041-.072-.062-.072h-1.508C-139.629-38.719-139.651-38.7-139.672-38.641Z" transform="translate(139.929 49.851)" fill="#e8f8fc" opacity="0.62"/>
    <path id="Path_2603" data-name="Path 2603" d="M-139.672-16.035a1.32,1.32,0,0,0-.052.218l.239,1.377h0l-.239-1.377a4.4,4.4,0,0,0-.047.676V-6.4a4.492,4.492,0,0,0,.046.669.82.82,0,0,0,.085.291h1.553c.017,0,.035-.02.05-.062a1.184,1.184,0,0,0,.055-.238,4.427,4.427,0,0,0,.044-.66v-8.737a4.494,4.494,0,0,0-.044-.666h0a1.389,1.389,0,0,0-.054-.233c-.019-.052-.041-.072-.062-.072h-1.508C-139.629-16.113-139.651-16.093-139.672-16.035Z" transform="translate(139.929 49.575)" fill="#e8f8fc" opacity="0.62"/>
    <path id="Path_2604" data-name="Path 2604" d="M-139.672-27.338a1.32,1.32,0,0,0-.052.218l.239,1.377h0l-.239-1.377a4.4,4.4,0,0,0-.047.676v8.737a4.493,4.493,0,0,0,.046.669.82.82,0,0,0,.085.291h1.553c.017,0,.035-.02.05-.062a1.184,1.184,0,0,0,.055-.238,4.427,4.427,0,0,0,.044-.66v-8.737a4.494,4.494,0,0,0-.044-.666h0a1.389,1.389,0,0,0-.054-.233c-.019-.052-.041-.072-.062-.072h-1.508C-139.629-27.416-139.651-27.4-139.672-27.338Z" transform="translate(139.929 49.713)" fill="#e8f8fc" opacity="0.62"/>
    <path id="Path_2605" data-name="Path 2605" d="M-129.172-26.745a.775.775,0,0,0-.058-.078c.019.026.042.05.059.078Z" transform="translate(142.026 49.706)" fill="#23dd05"/>
    <path id="Path_2606" data-name="Path 2606" d="M-129.155-17.167l0-.012a.946.946,0,0,1-.131.183A.984.984,0,0,0-129.155-17.167Z" transform="translate(142.016 49.588)" fill="#23dd05"/>
  </g>
  <text id="Functional_Programming_" data-name="Functional  Programming " transform="translate(0 67.165)" fill="#fce9ff" font-size="8.8" font-family="Roboto-Bold, Roboto" font-weight="700" letter-spacing="-0.001em"><tspan x="0" y="0" xml:space="preserve">Functional  Programming </tspan></text>
</svg>
