<svg xmlns="http://www.w3.org/2000/svg" width="28.103" height="27.19" viewBox="0 0 28.103 27.19">
  <g id="LinkedIN" transform="translate(0)">
    <path id="back" d="M0,13.595A13.829,13.829,0,0,1,14.051,0,13.829,13.829,0,0,1,28.1,13.595,13.829,13.829,0,0,1,14.051,27.19,13.829,13.829,0,0,1,0,13.595Z" fill="#0077b5"/>
    <path id="Shape" d="M5.135,11.683s.042-7.143,0-7.883H8.32V4.917a3.317,3.317,0,0,1,2.87-1.3c2.1,0,3.667,1.127,3.667,3.548v4.52H11.673V7.465c0-1.059-.461-1.782-1.614-1.782a1.743,1.743,0,0,0-1.634.958,1.5,1.5,0,0,0-.1.639v4.4Zm-4.947,0V3.8H3.373v7.883ZM1.76,2.724C.691,2.724,0,2.119,0,1.361,0,.589.712,0,1.8,0s1.76.589,1.781,1.361c0,.757-.691,1.363-1.8,1.363Z" transform="translate(6.557 7.825)" fill="#fff"/>
  </g>
</svg>
