<svg id="Mail" xmlns="http://www.w3.org/2000/svg" width="27.19" height="27.19" viewBox="0 0 27.19 27.19">
  <circle id="Oval" cx="13.595" cy="13.595" r="13.595" fill="#0971bd"/>
  <path id="Shape" d="M13.414,12.179H1.219A1.22,1.22,0,0,1,0,10.961L.01,3.654s1.541.82,3.207,1.628a17.824,17.824,0,0,0,4.1,1.628c1.289,0,7.247-3.223,7.307-3.256l.01,7.307A1.22,1.22,0,0,1,13.414,12.179Zm-6.1-6.944C6.141,5.235.061,1.8,0,1.761V1.218A1.22,1.22,0,0,1,1.219,0H13.414a1.22,1.22,0,0,1,1.219,1.218l-.01.609-.005,0C14,2.179,8.5,5.235,7.316,5.235Z" transform="translate(6.447 7.506)" fill="#fff"/>
</svg>
