<svg xmlns="http://www.w3.org/2000/svg" width="28.103" height="27.19" viewBox="0 0 28.103 27.19">
  <g id="Twitter" transform="translate(0)">
    <path id="back" d="M0,13.595A13.829,13.829,0,0,1,14.051,0,13.829,13.829,0,0,1,28.1,13.595,13.829,13.829,0,0,1,14.051,27.19,13.829,13.829,0,0,1,0,13.595Z" fill="#55acee"/>
    <path id="Shape" d="M6.6,2.464l.029.4-.491-.049A8.75,8.75,0,0,1,1.464.919L.816.387.649.78A2.064,2.064,0,0,0,1.258,3.2c.393.343.3.392-.373.188A1.374,1.374,0,0,0,.423,3.3a2.527,2.527,0,0,0,.354,1.1A3,3,0,0,0,2.123,5.44l.482.188-.57.008c-.55,0-.57.008-.511.18A2.839,2.839,0,0,0,3.361,7.156l.609.172L3.44,7.59a6.454,6.454,0,0,1-2.634.6A3.5,3.5,0,0,0,0,8.26a8.274,8.274,0,0,0,1.9.719,9.888,9.888,0,0,0,6.448-.6A7.689,7.689,0,0,0,11.618,5.2a7.2,7.2,0,0,0,.668-2.453c0-.376.029-.425.58-.875a5.845,5.845,0,0,0,.688-.63c.1-.155.088-.155-.413-.016-.835.245-.953.213-.541-.155A2.354,2.354,0,0,0,13.269.2c0-.025-.147.016-.315.09a6.228,6.228,0,0,1-.865.278l-.531.139-.482-.27a4.366,4.366,0,0,0-.835-.36,4.052,4.052,0,0,0-1.72.033A2.388,2.388,0,0,0,6.6,2.464Z" transform="translate(7.026 8.964)" fill="#fff"/>
  </g>
</svg>
